<svg version="1.0" xmlns="http://www.w3.org/2000/svg" width="1512" height="1552" viewBox="0 0 1134 1164"><g fill="#fafafa" stroke="#fafafa" stroke-width=".1"><path d="M603.8 20.6c-28.9 7-43.2 38.1-29.7 64.6 3.1 6 11.8 14.1 18.9 17.6 13.2 6.4 28.7 6.3 42.6-.2 19.1-9 29.2-30.5 23.9-51-6.1-23.3-30.8-37.1-55.7-31zm23.7 15.2c7.4 3.5 12.6 9.6 15.4 18 2.5 7.5 2.6 12.8.4 19.9-2.2 7.2-7.2 12.7-14.7 16.5-8.1 4.2-18.3 4.5-26.4.9-9.4-4.2-17.2-16.9-17.2-28 0-21.9 22.9-36.6 42.5-27.3zM501.9 24.4c-20.9 6.1-34.6 27-31.1 47.5 1.6 9.5 4.5 15.3 11.2 22.5 4.1 4.4 7.8 7.1 11.9 9 16 7.2 30.6 5.7 45.9-4.6l7.4-5-.7-6.2c-.3-3.3-.8-6.2-.9-6.3-.2-.2-3 0-6.4.3-6.2.7-6.2.7-6.2 3.9 0 2.6-.6 3.4-3.7 4.9-10.3 5-19.5 5.1-28.8.4C492 86.4 486 75.5 486 64.4c0-18.8 17.9-32.2 36.6-27.2 3.7 1 4.6 1.7 5.1 4 .5 2.7.6 2.8 6.2 2.2 3.1-.4 5.9-.9 6.2-1.3 1.1-1-.7-11.1-2.2-12.5-.8-.7-3.9-2.3-6.9-3.5-6.9-2.8-22.2-3.7-29.1-1.7zm194.2 9.1c-1.6 7-1.6 6.9.7 7.5 1.8.5 1.6 1.8-4.3 22.5-10.3 36.6-9.2 33.6-11.9 32.9-2.1-.5-2.4 0-3.9 5.2-.9 3.2-1.3 6.1-.9 6.5.7.7 16.8 5.4 20.6 6.1 1.4.2 2.1-.7 3.2-4.2 1.8-6 1.7-7.5-.5-8.6-1.7-.8-1.5-2.1 4.3-22.4l6-21.5 2.3 29.5c1.2 16.2 2.2 30.2 2.2 31.1.1 1 2.3 2.1 7.1 3.3 3.9 1 7.2 1.7 7.4 1.5.3-.2 8.4-11.4 18.1-24.9 9.8-13.5 17.4-23.4 17-22-.5 1.4-3.2 10.8-6.1 21-5 17.7-5.3 18.5-7.7 18.5-2.2-.1-2.7.6-4.1 5.8-.9 3.3-1.5 6.1-1.3 6.4.9.8 21.3 6.3 22.2 5.9 1.4-.5 3.9-10.2 3-11.6-.3-.5-1.3-1-2.1-1-1.7 0-2.3 2.6 7-30 7.1-24.7 7.4-25.5 9.7-25.2 2.2.3 2.6-.3 4.1-5.8 1.2-4.5 1.3-6.2.5-6.5-.7-.2-5.5-1.6-10.7-3.1-5.2-1.5-10-2.9-10.7-3.1-.6-.2-10.1 11.9-21 27l-20 27.5-2.3-33.7-2.4-33.7-11.5-3.2c-6.4-1.8-11.9-3.2-12.2-3.2-.3 0-1.1 2.5-1.8 5.5zM359.5 60.6c-5.5 1.3-36.5 14-36.5 15 0 .6 1 3.5 2.2 6.3 1.8 4.5 2.4 5.2 4.3 4.7 2-.5 2.9 1.4 12.5 25.6 9.5 24.1 10.1 26.2 8.5 27.4-1.6 1.2-1.6 1.6-.1 6.1 2.6 7.8 2.1 7.7 13.6 3.2 5.8-2.2 10.6-4.2 10.8-4.4.2-.1-.8-2.9-2.1-6.1-1.9-4.8-2.7-5.9-4.6-5.9-2 0-2.8-1.3-6-9.6l-3.8-9.6 19.9 11.5 19.9 11.5 7.2-2.8c4-1.5 7.4-2.9 7.6-3.1.2-.2-.6-3-1.9-6.3l-2.2-6-3.6 1.5c-2 .8-4.3 1.2-5.1.9-2.9-1.1-24.1-13.8-24.1-14.4 0-.3 1.5-1.6 3.4-2.8 9.6-6.2 10.9-25.2 2.4-34.8-1.6-1.9-4.4-4.3-6.2-5.4-3.2-2-12.2-3.4-16.1-2.5zm8.3 16.9c6.9 5.8 4.5 13.1-6.2 18.4-3.5 1.7-7 3.1-7.7 3.1-.8 0-2.9-3.8-5-9.4l-3.6-9.4 6.1-2.5c8.1-3.3 12.6-3.4 16.4-.2zm447.7-7.9c-3 6.7-2.9 6.4-.9 7.9 1.5 1 .5 3.9-9.8 26.6-10.6 23.4-11.7 25.4-13.9 25.2-2-.2-2.8.6-4.7 5-1.2 2.8-2.2 5.6-2.2 6 0 .8 18.4 9.7 20.1 9.7 1.2 0 6.1-10.9 5.3-12.1-.3-.5-1.1-.9-1.9-.9-1 0 0-3 3.2-10.3 2.6-5.6 4.7-10.3 4.8-10.4.1-.2 4.4 1.6 9.6 3.9 5.6 2.5 11.4 4.3 14.4 4.6 8.4.6 16.1-3.9 21.2-12.6 2.3-3.9 2.8-5.8 2.8-12.2 0-6.4-.4-8.2-2.7-12.2-1.5-2.5-4.2-5.5-6-6.6-2.9-1.8-19.6-9.6-32.6-15.3l-4.2-1.8-2.5 5.5zM838.3 88c7.2 3.4 9.4 5.4 10.5 9.6 1.1 4.2.4 6.9-2.5 9.8-2 2.1-3.5 2.6-7.2 2.6-4.6-.1-17.3-4.7-17.4-6.3-.1-2 7.9-18.7 8.9-18.7.7 0 4.1 1.4 7.7 3zm-553.2 5c-4.6 2.6-8.8 5.3-9.3 5.8-.7.7-.2 2.6 1.7 5.9 1.5 2.6 2.9 4.9 3.1 5.1.1.2 1.1-.1 2.2-.7 1.9-1 3 .7 14.6 20.8 6.9 12.1 12.6 22.8 12.6 24 0 4.3-2.3 6.9-10.4 11.5-4.6 2.5-8.9 4.6-9.7 4.6-4.2 0-7.4-4.2-19.4-25-10.6-18.6-12.1-21.6-10.7-22.4 1-.5 1.9-1 2.1-1.2.2-.1-1.1-2.8-2.9-5.9l-3.2-5.6-4.1 2.4c-2.3 1.4-6.8 3.9-9.9 5.7-3.2 1.7-5.8 3.7-5.8 4.3 0 .7 1.3 3.3 2.8 5.9 2.1 3.6 3.1 4.5 4.2 3.8.8-.6 1.8-1 2.2-1 .3 0 6.1 9.6 12.8 21.2 6.7 11.7 13.4 22.6 14.9 24.1 4.2 4.6 9.3 6.7 16 6.7 5.2 0 7.2-.6 14.8-4.6 11.7-6.1 14.3-8.2 17.7-14.4 2.4-4.5 2.8-6 2.4-11.5-.4-6-1.1-7.5-13.1-28.4-7-12.1-12.7-22.3-12.7-22.7 0-.4.7-1.2 1.6-1.9 1.4-1 1.3-1.7-1.2-6.3-1.6-2.8-3.3-5.2-3.9-5.1-.5 0-4.8 2.2-9.4 4.9zM902 113.6c-2.2 3.6-2.7 5-1.7 5.6 1.5.9 2.6-.1-24.1 22.8-15.8 13.5-21.6 18-22.5 17.1-2-2-3.7-1.1-6.7 3.6-1.7 2.6-3 5-3 5.4 0 .4 3 2.5 6.6 4.8l6.5 4.1 8.1-6.9 8-6.9 10.8 7 10.8 7-2.2 8.1c-1.3 4.5-2.6 9.1-2.9 10.2-.7 2-.7 2 11.5 9.9l2.7 1.7 3.6-5.3 3.6-5.3-2.6-2c-1.4-1.2-2.5-2.7-2.5-3.5 0-.9 4.3-16.5 9.5-34.7 5.2-18.3 9.5-33.8 9.5-34.5 0-1.2-14.4-10.9-18.3-12.4-1.2-.4-2.5.7-4.7 4.2zm2.9 28.1c-1 3.8-2.7 9.5-3.6 12.8-.9 3.3-1.9 6.3-2.2 6.7-.3.4-3.7-1.2-7.4-3.6l-6.8-4.3 10.7-9.1c5.9-5.1 10.9-9.2 11-9.2.2 0-.6 3-1.7 6.7zm62.5 14.8c-3.4 4.2-3.5 4.7-2.1 6.3 1.4 1.6.4 3.1-14.1 19.8-8.6 9.9-17.2 19.7-18.9 21.8-2.9 3.2-3.5 3.5-5.3 2.4-1.8-1.2-2.4-.8-6 3.2-2.1 2.5-3.9 4.7-4 5.1 0 .3 4.1 4 9.1 8.3l9.1 7.9 3.9-4.4c3.9-4.5 4.6-6.3 2.9-7.4-.5-.3-1-1-1-1.5 0-.9 31.8-38 32.6-38 .2 0 0 1-.5 2.2-11.9 31-23.1 60.7-23 61.4 0 .9 18.6 16.9 20.3 17.6.5.1 2.7-1.8 4.9-4.4 3.7-4.4 3.9-4.9 2.4-6.5-1.4-1.7-.2-3.3 17.3-23.5 17.6-20.3 18.9-21.6 20.8-20.3 1.8 1.3 2.3 1 6.1-3.5l4.1-4.9-8.6-7.5c-4.8-4.2-9.2-7.6-9.8-7.5-.6 0-2.9 2.1-5.1 4.6-3.6 4.1-3.8 4.6-2.2 5.8.9.7 1.7 1.5 1.7 1.9 0 1-32.2 37.8-32.6 37.3-.2-.2 5-14.5 11.6-31.8 9.4-24.6 11.7-31.6 10.7-32.5-5.2-4.9-18.9-16.4-19.7-16.4-.5 0-2.5 2-4.6 4.5zm-777.9.9c-22.5 7.1-37.2 30.2-33.6 52.6 2 12.3 10.2 25.1 19.7 30.6 23.7 13.9 52.9 4.3 65.2-21.4 3.6-7.5 3.7-8 3.7-19.2 0-9.6-.4-12.4-2.3-17.2-6.6-16.5-22.4-26.9-40.5-26.7-4.5 0-10 .6-12.2 1.3zm20.2 15.7c6.5 2.5 14.2 9.1 18 15.6 7.9 13.5.6 32.8-15.4 40.4-5.8 2.8-7.3 3.1-12.4 2.6-8.4-.9-15.6-4.5-21.5-10.8-6.5-6.9-8.8-12.8-8.2-21.1.5-7.7 3.6-14.5 9.2-20 8.6-8.5 19.2-10.8 30.3-6.7zm472.8 29c-2.2.4-6.3.6-9.2.3-6.6-.8-10.5.5-22.3 7.4-14 8.1-23.6 14.8-30.5 21.1-14.9 13.5-17.9 15.7-26 18.5-9.4 3.3-20.6 8.8-25.4 12.3-4 3.1-6.1 7.7-6.1 13.8 0 5.4.4 5.4-11.5 0-6.6-3-7.6-3.9-10.5-8.9-4.2-7.4-12.1-15.9-16.7-18.2-2.1-1-5.9-1.9-8.5-2-2.5-.1-5.7-.9-7-1.8-4.2-2.7-9-2.9-15.6-.7-3.4 1.2-7.5 2.1-9.1 2.1-1.6 0-5 1.4-7.7 3.3-2.7 1.8-7.4 4.3-10.3 5.5-3 1.2-11 5.6-17.7 9.8-15.3 9.4-52.2 27.9-57 28.7-3.7.6-7.4 3.1-7.4 5.1 0 .6-.5 1.8-1 2.6-.8 1.2-1.2 1.1-3.2-.7-5.7-5.1-11.7-5.6-25.7-1.9-7.6 1.9-9.3 2.1-10.2 1-1.5-1.9-7.4-1.8-10.3.1-1.3.9-11.6 3.1-23 5.1-26.6 4.4-49.9 9-55.6 10.9-2.5.8-10.8 5.1-18.4 9.5-16.9 9.7-24.4 12.4-49.9 18.4-39.3 9.3-51.5 13.7-60.1 21.6-2.6 2.4-8.3 9.4-12.7 15.6-10 14.1-15.8 19.4-30.4 27.8-30.3 17.3-53.2 34.8-60 45.6-15.2 24.3-8.9 57.9 16 84.8 5.4 5.8 8.2 7.9 14.8 11.1 9.2 4.3 13.4 8.3 21 19.8 2.6 3.9 7 9.2 9.8 11.7 5.7 5.1 21.2 13 34.4 17.6 14.4 5 25.9 11.1 43 23 8.8 6.1 22.5 15 30.5 19.7 24.2 14.3 28.7 17.2 36.2 23.4 9.5 7.7 16 11.1 28.9 14.8 21.2 6.1 26.1 9.6 37 25.9 3.9 5.9 10.4 14.8 14.5 19.8 8.1 10 9.6 13.3 11.4 24.8 1.2 6.9 1.7 8.1 6 13.1 4.5 5 7 11.2 7 17 0 .8 1.9 7.9 4.1 15.7l4.1 14.3.8 47.5c.5 26.1 1.1 51 1.5 55.3l.6 7.8-3.3-1.4c-44.9-19.3-83.5-42.5-115.6-69.4-8-6.8-15-12.3-15.4-12.3-.4 0-.8 40.6-.8 90.2l.1 90.3 8.2 7.1c58.2 50.6 132.8 86.3 219.4 104.9 47 10.1 90.3 14.1 142.7 13.2 32.4-.6 51-2 77.6-5.7 103.1-14.7 197.2-55.2 261.3-112.4l7.7-6.9v-90.3c0-49.7-.3-90.4-.6-90.4s-4 3.1-8.2 6.8c-36.2 32.2-82.4 59.6-134.8 80l-10.1 3.9-.6-13.3c-.8-15.7-.6-18 3.9-38.9 5.9-27.6 8.6-37.8 11.7-44 5-10 26.8-44.5 29.1-46 1.2-.7 5-2.1 8.5-3 8.9-2.3 14.4-5.3 22.6-12.5 8.9-7.8 12.2-9.5 26.9-13.6 14.2-3.9 26.6-8.1 58.7-19.7 25.3-9.2 30.3-10.7 56.4-16.2 25.5-5.5 31.2-7.6 44.5-16.2 10.8-7 51.3-34.7 55.3-37.7 1.4-1.1 2.6-6 5.3-22.3 4.6-27.8 4.6-29.8-.4-45.8-5.8-18.2-10.5-37.2-14.1-56.2-1.7-9-4.1-19.6-5.5-23.6-2.9-8.5-26.5-52.7-39.7-74.3-4.6-7.6-31.6-46-47.2-67.4-14.5-19.7-28.9-33.9-51.7-50.7-9.5-7-15.7-13.1-25.7-25.4-3.9-4.9-9.3-9.5-20.3-17.3-18.1-12.9-37.2-25.2-48.5-31.2-7.9-4.3-8.4-4.4-9-2.4-.3 1.1-1 2-1.5 2s-20.6-10.4-44.7-23.1l-43.8-23.2-12.5-.2c-6.9-.1-18.3-1.2-25.5-2.4-17.8-2.9-18.5-3-23-2zm-10.6 4.5c4.8 1 3.7 2.4-1.9 2.4-4.7 0-6.6-1.2-3.7-2.3 1.8-.8 2.1-.8 5.6-.1zm26.1 1c13.7 2.5 29.1 4.1 36.1 3.6 4.8-.3 7.4 0 9.5 1.2l2.9 1.5-3-.4c-1.6-.2-14.5-.9-28.5-1.5s-28-1.3-31-1.6l-5.5-.6 2.4-1.9c2.8-2.3 6.4-2.4 17.1-.3zm-32.7 3.2c.3.4-4.4 3.8-10.4 7.5-10 6.2-11.1 6.7-12.9 5.4-1.9-1.4-1.5-1.8 8.2-7.6 9.5-5.6 14-7.2 15.1-5.3zm13.1 9.5c.4 2.9.4 6.1 0 7.1-.8 2.1-4.4 3.6-8.7 3.6-1.7 0-6.9 2-11.8 4.5l-8.7 4.5-.7-3c-.4-1.6-1.1-3.2-1.6-3.5-2.1-1.4-.5-2.8 6.7-6.1 4.2-1.9 9.6-4.8 12-6.5 4-2.7 10-5.8 11.5-5.9.4 0 1 2.4 1.3 5.3zm24.5-2.7c14.1 1.4 18.5 1.4 29.4.4 7-.7 13-1 13.3-.7 1 .9-2.4 6.4-5.6 9-4.5 3.8-8.3 4.2-17.5 1.7-8.2-2.3-15.3-2.3-33.2-.4l-6.3.7v-6.2c0-5 .3-6.1 1.6-6.1.9 0 9.1.7 18.3 1.6zm58.4 11.3c5.6 5.8 9 8.4 12.5 9.7 9.4 3.4 15.2 6.3 15.2 7.7 0 2.5-4.4 7.9-8 9.8-6.8 3.6-9.3 2.4-17.8-8.7-2.4-3.2-4.2-4.4-7.9-5.3-2.7-.7-8.2-2.8-12.3-4.8l-7.4-3.5 5.1-2.5c5.2-2.4 9.3-7.2 9.3-10.7 0-2.6 2.5-.7 11.3 8.3zm38.2 14.6c13.2 7 24.1 12.8 24.3 13 .1.1 0 .9-.4 1.8-.5 1.4-.9 1.4-4.2 0-2-.8-9.3-5.2-16.2-9.6-11.6-7.5-15.5-9.5-28.2-14.1-3.2-1.2-5.8-3.2-8.4-6.3l-3.8-4.6 6.5 3.5c3.5 2 17.2 9.3 30.4 16.3zm-159.9-16.9c.5 1.5-21 16.4-21.8 15-1.1-1.7 6.8-9.2 13.7-13.2 5.9-3.3 7.6-3.7 8.1-1.8zM645 238c0 2.9-3.4 5-10 6.5-1.9.4-6.2 2.1-9.4 3.6-3.3 1.6-6 2.8-6.1 2.6-.2-.1-.6-1.2-.9-2.4-.6-1.9.1-2.6 5.3-5.2 3.3-1.7 8.8-4.9 12.3-7.1 5.8-3.8 6.4-4 7.5-2.4.7 1 1.3 3 1.3 4.4zm35.3.7c.8 1.6 1.7 4.5 2.1 6.5l.7 3.7h-6.3c-6.4 0-16 2.7-20.6 5.7-2.8 1.8-2.6 1.9-4.5-2.7l-1.5-3.7 10.6-4.1c5.9-2.3 12.1-5 13.7-6.1 3.9-2.6 4.2-2.5 5.8.7zm27.5-1.1c12.1.6 14.2.9 14.2 2.3-.1 2.7-2.7 9.1-4.5 11.1-1.7 1.8-1.8 1.8-5.7-.7-5-3.4-12.4-4.1-19.7-1.9-3 .9-5.5 1.5-5.6 1.3-.1-.1-.6-2.5-1.3-5.2-.6-2.8-1.4-5.9-1.8-6.9-.7-1.8-.3-1.8 4.7-1.2 3 .3 11.8.9 19.7 1.2zm30.3 9.5c8.4 5.5 12 7.2 17.9 8.5 7.9 1.8 13 5.4 13 9.1 0 2.5-3.6 8.4-6.8 11l-2.6 2.2-7.3-6.9c-8.2-7.9-11.7-9.9-22.3-13-4.1-1.2-8.1-2.3-8.8-2.6-.9-.3-.7-1.2.9-3.3 1.3-1.8 2.4-5 2.7-8 .3-3.4.8-4.8 1.6-4.4.6.3 5.9 3.7 11.7 7.4zm-124.5-1.8c-1.1.7-4.3 3.2-7 5.7l-5.1 4.4 5.5-5.7c3-3.1 6.1-5.7 7-5.6 1.1 0 1 .3-.4 1.2zm-109 2.3c3.3 1.6 7.4 5.7 7.4 7.5 0 .4-1.6 1.3-3.5 1.9-3.3 1.1-3.6 1-6.1-1.9-1.4-1.7-3.9-3.9-5.5-4.8l-2.9-1.7 2.3-1.3c3-1.6 4.3-1.6 8.3.3zm111.4 4.6c0 1.9-9.7 7.1-10.6 5.6-.3-.5 1.6-2.9 4.2-5.3 4.8-4.6 6.3-4.6 6.4-.3zm185 1.3c4.3 3.7 8.2 6.1 12.4 7.5 8.6 2.9 8.7 3 7.6 7-.6 1.9-1 4.7-1 6.1 0 1.4-.7 4-1.6 5.8-1.6 3.2-1.7 3.2-3.4 1.3-6.3-6.8-16.4-13-27.5-17.1l-7.7-2.8 3.1-1.3c3.4-1.4 8.6-6.7 9.6-9.9.3-1.2 1-2.1 1.4-2.1.4 0 3.6 2.5 7.1 5.5zm-306.6.8c5 4.7 5.6 6.2 2.7 7.2-1.1.3-3.6 2.4-5.5 4.5-2 2.2-3.8 4-4 4-.2 0-.6-1.2-.9-2.8-.3-1.5-2.5-5.2-4.7-8.2l-4.2-5.4 2.2-1.8c1.3-1 3.9-1.8 6-1.8 3 0 4.6.8 8.4 4.3zM649 254c.5 3.5 0 4-4.8 4-2.6 0-6.2.4-8 .9-3.7 1.1-6.2.5-6.2-1.4 0-.7 2-1.5 4.9-1.9 2.7-.3 6.4-1.7 8.2-3 3.5-2.4 5.5-1.9 5.9 1.4zm-125.2.1c-.7.4-1.8.3-2.5-.3-2.2-1.8-1.4-2.8 1.2-1.6 1.8.8 2.2 1.4 1.3 1.9zm14.4 15.9c1.7 3 5.7 8.9 8.8 13 3.1 4.1 8.5 11.5 11.9 16.5l6.2 9-4.8.7c-2.6.4-5.1.4-5.4 0-.3-.4-1.6-3.6-2.8-7.2-3.3-9.4-8.6-18.8-13.6-24-3.7-3.9-14.5-19.1-14.5-20.4 0-.2.8-.7 1.8-.9 2.2-.5 8.1 5.8 12.4 13.3zm-72.6.7l-.1 11.7-3 1.2c-1.6.7-5.5 1.3-8.5 1.4-7.5 0-11.4 1.3-20.6 6.6-7.5 4.3-8.2 4.5-14.6 4.2-6.6-.4-10.8-2.4-10.8-5.2 0-.6 7.3-4.6 16.3-8.9 11.8-5.7 39.5-20.8 41.3-22.6v11.6zm13.7-3.5c5.9 6 6.5 10 1.6 11.7-1.8.6-4.4 1.1-6 1.1-2.7 0-2.7-.2-3.4-7.4-.4-4-.4-8.9 0-10.7.7-3.1.9-3.2 1.9-1.4.6 1.1 3.2 4.1 5.9 6.7zm43.8 2c2.9 4.6 7.2 10.5 9.5 13.3 2.3 2.7 5.6 7.5 7.3 10.6l3.1 5.6-4.1.7c-2.3.4-5.5 1.4-7.1 2.2-1.6.9-3.2 1.4-3.4 1.1-.2-.2-1-3.9-1.8-8.3-1.7-9.9-3.8-13.9-11.5-22.8l-6.1-6.9 3.8-1.8c2-1 4-1.8 4.3-1.8.4-.1 3.1 3.6 6 8.1zm126.1-1.6c-6.9 6.1-11.2 12.6-11.2 16.8 0 2.4.7 2 8.3-5.7 4.5-4.6 11.1-10.3 14.7-12.7l6.5-4.3-8.1 8.4c-8.9 9.2-11.4 13.2-11.4 18v3.3l3.2-4.5c5-6.8 12.2-14.6 17.9-19.1l5.2-4.1-2.6 3.4c-3.4 4.5-9.1 16.8-8.2 17.7.4.4 3-1.8 5.8-4.9 5.5-6 7.6-7.6 17.2-12.9l6-3.4-5.4 4.9c-7.9 7.2-10.3 11.5-9.9 17.8l.3 5.1 5.2-6.6c4.8-6.1 10.9-11.4 18.8-16.2 1.7-1.1.8.1-2.2 2.8-5.3 4.7-9.6 12.2-10.7 18.4-.8 4.3.1 3.9 5.6-2.8 5.2-6.4 10.1-9.9 18.1-12.9 8.3-3 9.3-2.6 1.9.9-14.2 6.7-24.2 20.8-24.2 34.1 0 5.5 2 12.1 4 13.4.5.3 1.5 1.6 2 2.8.7 1.3-.1.8-2-1.3-2.9-3.3-4.1-6.4-8.5-22.3-.9-3.1-2.1-5.5-2.6-5.1-3.8 2.3-5.3 14.1-2.6 20.7 2.5 5.9.9 4.3-1.9-1.8-1.9-4.5-5.4-19.6-5.4-23.6 0-.5-.5-.9-1.1-.9-1.6 0-4.2 7-4.9 13.5l-.7 6-.1-6.8c-.1-3.8.3-8.8.9-11.3 1.4-5.4.7-6.3-2.9-4.2-3.5 2-7.8 8.4-10.3 15.1l-2 5.2.6-4.3c.3-2.3 1.9-7.4 3.7-11.3 1.7-3.8 2.8-7.2 2.4-7.6-.9-1-7.4 5.6-10.3 10.4-1.3 2.3-2.8 6.4-3.3 9-.7 4.4-.8 4-.9-3.8 0-4.8.5-10.6 1.3-13.2 1.6-5.5.7-6-2.7-1.5-3.6 4.8-5.4 8.8-7.6 16.5-1.9 6.5-2 6.6-2 2.7-.1-2.2.6-8.2 1.5-13.3.9-5.1 1.3-9.5 1-9.9-.9-.8-6.4 4.7-8.4 8.3-.9 1.6-2.2 5.2-2.9 8-1.2 4.7-1.2 4.3-.7-5.4l.5-10.4-2.5 3c-3 3.6-6.6 11.5-6.6 14.6 0 1.8-.2 1.9-1 .7-.6-.9-.8-5.1-.5-10.5l.6-9-2 2.3c-2.7 3.1-4.1 8.3-4.2 16.2l-.1 6.5-1.9-4.2c-1.1-2.4-2.3-6.9-2.7-10-1.1-8.6-1.9-8-6.8 5.2-1.4 3.6-1.7-3.5-.4-9.2 1.4-6.5 5.5-12.2 11.7-16.4 4-2.7 4.4-2.8 2.7-.8-1.2 1.3-2.9 3.8-3.8 5.6-1.7 3.4-2.2 11.3-.7 11.3.5 0 2.8-3 5.2-6.6 4.4-6.8 11.6-14.6 15.1-16.5 1.2-.7.4.9-2.3 4.3-2.3 2.9-5.2 7.5-6.5 10.3-3.7 7.9-2.9 13 1 6.4 2.4-4 14-16.4 18-19.1l3.1-2.2-2.2 2.5c-2.3 2.6-12.3 18.4-12.3 19.5 0 .4 3.7-3.1 8.3-7.8 6.9-7.1 19.4-16.8 21.6-16.8.3 0-2.2 2.5-5.7 5.6zm177.6 9.2l-.3 4.7-1.4-2.7c-1.2-2.4-1.2-3.8 0-10l1.4-7.3.3 5.3c.2 2.9.2 7.4 0 10zm-256.4-9.3c-2.6 3.4-4.2 4.7-2.8 2.2.9-1.5 4.6-5.7 5.1-5.7.2 0-.8 1.6-2.3 3.5zm214.4 6.3c10.4 8.9 12.2 10.1 16.6 11.3 2.2.6 5.6 1.8 7.4 2.6 2.9 1.4 3.2 2 3.2 5.7 0 2.9-.9 5.6-3 8.9-2.5 4-3.4 4.7-6.2 4.7-2.8 0-3.7-.7-6.1-4.5-4.7-7.4-16-15.5-27.9-20-2.7-1-4.8-1.9-4.8-2.1 0-.1 1.3-1.6 3-3.2 1.6-1.7 3.5-5 4.2-7.5l1.2-4.6 2.8 1.5c1.6.8 5.9 4 9.6 7.2zm-276.1 3.9c5 9 11.3 21.7 11.3 22.8 0 .2-1.8.1-3.9-.2-2.4-.3-5.9.1-8.7 1.1-5.7 1.9-5.4 1.9-5.4.3 0-3.5-2.5-9.1-6-13.9-4.5-6-4.9-8.5-1.9-13.7 1.8-3.2 6.1-7 8-7.1.3 0 3.2 4.8 6.6 10.7zm64.6-6.3c-1 1.3-2 2.2-2.2 2-.4-.4 2.9-4.4 3.6-4.4.2 0-.4 1.1-1.4 2.4zm4.7 1c0 .2-.8 1-1.7 1.7-1.6 1.3-1.7 1.2-.4-.4 1.3-1.6 2.1-2.1 2.1-1.3zm9 3.6c-1.2 1.6-2.4 3-2.6 3-.7 0 .5-2 2.4-4.3 2.4-2.7 2.5-2 .2 1.3zm5.9 1c-3.1 3.8-3.9 4.6-3.9 3.5 0-.6 6.1-7.5 6.7-7.5.2 0-1.1 1.8-2.8 4zm-10.9-1.6c0 .2-.8 1-1.7 1.7-1.6 1.3-1.7 1.2-.4-.4 1.3-1.6 2.1-2.1 2.1-1.3zm-12.5 12.8l13.5 6.2-3.4 1.9c-1.8 1.1-4.4 3.7-5.7 5.8-2.4 3.8-3.9 4.9-3.9 2.8 0-.6-3.4-6-7.6-12-4.1-6-7.3-10.9-6.9-10.9.3 0 6.6 2.8 14 6.2zm256.8 1.2c-1.6 8.4-7.1 17.2-9.4 14.9-1.3-1.3.8-12.3 3.6-18.9l1.5-3.7 2.5 2.3c1.9 1.8 2.3 2.9 1.8 5.4zm-107.6 6.8c-.2 2.4-.4.5-.4-4.2s.2-6.6.4-4.3c.2 2.4.2 6.2 0 8.5zm-14.9-6.7c-.6 1.4-1.3 2.3-1.5 2.1-.5-.5 1.5-4.6 2.2-4.6.3 0-.1 1.1-.7 2.5zm6 0c-.6 1.4-1.3 2.3-1.5 2.1-.5-.5 1.5-4.6 2.2-4.6.3 0-.1 1.1-.7 2.5zm66.2 1.1c5.7 3.1 19.8 16.8 20.6 20 .7 2.5 1.6 3 8.7 4l4.7.6v10.6l16 13.7c12.2 10.3 17.4 15.6 21.5 21.3 6.1 8.7 12.3 14.4 27.4 25.2 15.6 11.1 19 17.3 30.8 56 4.1 13.7 8.7 26 12.4 34 5.6 11.9 5.9 13.1 7.4 25.7 1.7 14.6 3.1 19.4 7.6 26.5 3.1 4.7 3.1 4.9 1.7 9.2-2.1 6.4-9.7 19.2-14.5 24.6-4.7 5.2-9.9 7.7-22.7 11-10.3 2.6-13.4 2.5-43.6-1-45.6-5.4-44.2-5.2-47.4-8.2-1.6-1.4-4.8-3.2-7.2-3.8-4.1-1.2-4.5-1.1-8.6 1.9-2.4 1.7-6.9 3.9-10 5l-5.7 2-4.5-3.5c-9-6.9-19.9-8.4-27.7-4-2.8 1.6-4.7 2.2-5.4 1.6-2.5-2-9.8-3.9-19.7-5.1-9.3-1-10.7-1.5-14.3-4.4-2.2-1.8-6.7-4.9-10-7-3.3-2.1-6.2-3.9-6.4-4.1-.1-.1.7-3.3 1.9-6.9 1.9-5.8 2.8-7.1 6.6-9.5 2.6-1.6 6.4-3 9.5-3.3 15.5-1.9 23.2-13.1 20-29.4-3.1-16-2.9-16.7 6.8-28.7 3.5-4.4 7-9.5 7.8-11.5 1.8-4.3 8.2-13.9 13.8-20.6 2.3-2.8 5.5-7.3 7.3-10 3.5-5.6 11.2-21.7 11.2-23.4 0-1.1.4-1.4 10.3-7.2 6.5-3.8 7-5 8.2-17.7.7-6.8 1.6-8.8 2.9-6 .3.7.4-2.5.2-7.2-.4-8.9-2.3-14.7-7.1-21.7-1.4-2.1-2.5-4.5-2.5-5.3 0-.9-1.5-3.1-3.4-4.9-2.4-2.3-3.7-4.7-4.1-7.5-.4-2.2-3.8-10.7-7.6-18.8-3.8-8.1-6.9-15-6.9-15.4 0-1.4 9.5.7 14 3.2zm-287.2-1c3.1 2.2 2.8 4.1-1.5 8.4-4.7 4.6-12.7 7.6-22.4 8.5-9.3.9-13.1 1.8-24.7 6.1-14.2 5.3-18.2 4.8-20.2-2.5-1.9-6.7-1.6-7.1 4.5-7.1 3.2 0 8-.9 11.3-2.1 3.1-1.2 9.3-2.9 13.7-3.9 9.1-2 12.7-3.3 16.4-5.9 3.4-2.4 5.2-2.8 13.6-3 4.9-.1 7.7.4 9.3 1.5zM742.5 307l-.5 12.5 2-4.2c1.1-2.2 2.6-6.5 3.4-9.5 2-7.2 1.9-2.8-.1 9.3-.9 5.4-1.3 10.2-.9 10.6 1.2 1.2 2.9-1.5 5.2-8.4 2.9-8.5 3.1-4.8.3 5-3.2 11-3.3 11.7-1.8 11.7 1.7 0 3.7-2.9 6.1-8.5 2.6-6.3 2.1-2.6-.7 4.5-1.4 3.5-2.2 6.6-2 6.9.8.8 7.4-2.9 11.4-6.4l3.5-3-2.4 4c-2.9 5-11 16.5-11.5 16.5-.2 0 .5-2.1 1.6-4.6 1.2-2.5 1.8-4.8 1.5-5.2-.4-.3-2.7 1.4-5.2 3.9l-4.5 4.4 2-4.5c3.1-6.7 2.6-7.7-1.9-3.6-2.2 2-4.2 3.6-4.4 3.6-.2 0 .7-2.1 2-4.7 1.3-2.5 2.4-5.6 2.4-6.7-.1-1.7-.8-1.3-4 2.4l-4 4.5 2-4.5c1.9-4.7 3.7-13 2.7-13-.3 0-2.7 3.4-5.3 7.5-2.5 4.2-4.8 7.4-5.1 7.2-.2-.3 1.2-6.8 3.2-14.5 2.7-10.7 3.5-16.3 3.6-23.4.1-7.6.3-8.7 1-5.8.5 1.9.7 9.1.4 16zm-339.9-7.9c-1.3.4-3.7 1.6-5.2 2.8-3.5 2.5-7 1.9-7.7-1.4-.4-2.5.8-3.5 4.6-3.5 1.2-.1 3.3-.7 4.7-1.5 2.3-1.3 2.7-1.2 4.2.8 1.6 2.1 1.6 2.2-.6 2.8zm325.1 8.1c-.2 2.4-.4.5-.4-4.2s.2-6.6.4-4.3c.2 2.4.2 6.2 0 8.5zm7.1-3.7c0 2.7-.4 6.3-.7 8-.5 1.8-.8-.9-.8-7 0-6 .3-9.2.8-8 .4 1.1.7 4.2.7 7zm-146.7-4.8c.8.9 1.4 4 1.5 7.1 0 4.3.6 6.1 2.7 8.7l2.6 3.3-3.7.6c-2.4.3-4.9 1.7-6.7 3.6-1.6 1.6-3.2 3-3.7 3-.4 0-.8-2.1-.8-4.6 0-4-.5-5.1-3.6-8l-3.6-3.4 3.1-4.2c3-4.1 7.6-7.8 9.7-7.8.6 0 1.8.7 2.5 1.7zm124.6 7.5c-.2 1.8-.4.4-.4-3.2s.2-5 .4-3.3c.2 1.8.2 4.8 0 6.5zm-338.6-4.6c.8 1 .8 2.2 0 4.5-.6 1.8-1.1 5.1-1.1 7.5 0 3.7.5 4.7 3.3 6.8 1.9 1.5 4.2 2.7 5.3 2.7 1 .1-3.3.5-9.6 1-6.3.4-14.5 1.4-18.3 2.2l-6.7 1.5-3.1-3.9c-2.8-3.5-4.9-8.6-4.9-11.6 0-1.5 6.8-5.5 15-8.9 10.4-4.2 17.6-4.8 20.1-1.8zm-32.1.8c0 .2-.7.7-1.6 1-.8.3-1.2.2-.9-.4.6-1 2.5-1.4 2.5-.6zm69 2.5c4.5.6 4.5.6 4.8 4.9.3 4.6 2.6 10 7.3 16.8 3.1 4.6 2.7 5.6-2.2 6.9-2.8.7-5.9-1.4-5.9-3.9 0-2.9-2.8-4-7.1-2.7-3.5 1.1-4.4 1-5.8-.3-1-.9-3.2-1.6-5-1.6-2.3 0-3.4-.6-4-2.3-.5-1.2-2.1-3.7-3.5-5.6-1.7-2.3-2.6-4.8-2.6-7.2v-3.7l4 .9c4.1.9 8.9-.5 10.5-3.2.4-.6 1.6-.8 2.9-.4 1.1.4 4.1 1 6.6 1.4zm135.9 3.5c.8 1.7 1.6 4.9 1.9 7.2.4 4 .3 4.3-2.4 5-3.7.9-10.1-2.5-13.3-7.1-1.3-2-2.1-3.8-1.9-4.1 1.3-1.2 10.5-4.3 12.3-4.1 1.1.1 2.6 1.5 3.4 3.1zm-26.7.4c1.3 1.3-.6 4.9-3.1 5.7-3 .9-6.6-.4-9.6-3.6-3-3-2.7-3.4 2.5-4.1 3.1-.4 8.9.7 10.2 2zm295.7-.4c-.2.2-1.5.9-2.9 1.6-2.3 1.2-2.4 1.2-1.1-.3.7-1 2-1.7 2.9-1.7.8 0 1.3.2 1.1.4zm-148.2 4.8c-.3.8-.6.5-.6-.6-.1-1.1.2-1.7.5-1.3.3.3.4 1.2.1 1.9zm44 0c-.3.8-.6.5-.6-.6-.1-1.1.2-1.7.5-1.3.3.3.4 1.2.1 1.9zM509 320.5c2.2.4 4 1.1 4 1.5 0 .5-2.1 2.7-4.7 4.9-3.9 3.3-5.6 4.1-8.9 4.1h-4.1l-.6-8.3c-.4-6.6-.2-8.4 1.1-9.4 1.2-1 2.2-.6 5.4 2.6 2.7 2.7 5.1 4.1 7.8 4.6zm59.4-3.5c2.2 5.4 2 8.2-.6 11.6-1.2 1.6-2.3 3.1-2.4 3.3-.4.5-6.5-1.8-9.1-3.5l-2.4-1.5 2.1-2.6c2.2-2.8 2.7-7.8.8-8.9-1.6-1 1.7-2.2 6.3-2.3 3.4-.1 3.8.2 5.3 3.9zm163.1 6.1c-2.4 7.9-3 6.9-.8-1.5 1-3.7 2-6.1 2.2-5.5.2.6-.5 3.8-1.4 7zm-243.1-4.9c.9 3.5.7 8.6-.4 9.3-1.5.9-10.9-3.5-12.1-5.7-1.5-2.8.5-4.9 4.1-4.2 1.5.4 3.6.1 4.7-.5 2.6-1.5 3-1.4 3.7 1.1zm49 7.8l3.8 1.8-11.3 7.5c-6.3 4.2-14.1 9-17.4 10.7l-6 3.2-.3-3.3c-.6-5.8.6-9.6 3.2-10.3 3.9-1 8.3-5.2 11.7-11.4 4.9-8.7 4.6-8.5 8.7-4 2 2.3 5.4 4.9 7.6 5.8zm-67.8-3c.6 3 .7 5.3.2 5.6-.5.3-3.9.3-7.6-.1-4.7-.5-8.8-.2-13.5.9-3.8.9-8.6 1.6-10.8 1.6-3.4 0-4.2-.5-5.9-3.3-1.1-1.7-2-3.7-2-4.3 0-.8 4.8-1.3 15.3-1.6 11.6-.3 15.9-.8 18.2-2.1 4.5-2.4 5-2.1 6.1 3.3zm194.8 5.4c20.9 8.7 24.3 11.9 26.1 25.1l.6 5-5.4-8.5c-8.4-13.3-12.5-16.5-28.1-22.4-5.7-2.2-15.6-7.9-15.6-9.1 0-.2 3 1.1 6.8 2.9 3.7 1.9 10.7 5 15.6 7zm272.1 10.1c17.2 24.4 28.8 43.3 38 62 6.8 14 12.5 28.5 12.5 32 0 .4-3.8-6.6-8.3-15.6-9.3-18.1-21.5-39.6-40.7-71.4-17.9-29.7-16.5-27.3-14.5-25 .9 1.1 6.8 9.2 13 18zM664 323c.8.5 1.1 1 .5 1-.5 0-1.7-.5-2.5-1s-1-1-.5-1c.6 0 1.7.5 2.5 1zm-24 3.6c7.2 3.1 10.6 5.4 12.9 8.7l1.4 2.2-2.4-2.1c-1.3-1.2-5.2-3.6-8.6-5.3-6.6-3.3-13.9-7.7-11.3-6.8.8.3 4.4 1.7 8 3.3zm-239.2 4c2.4 1.1 4 1.3 6.6.6 3.2-.9 3.5-.8 4.6 1.9 1.5 3.6 6.2 5.3 11 3.9s5.2-1.3 4.8 1.1c-.2 1.6-1.5 2.5-4.3 3.4-2.2.7-5.6 2.2-7.6 3.4-3.5 2.1-3.7 2.1-8.2.4-3.6-1.3-4.8-2.3-5.2-4.4-.3-1.5-2.2-4.1-4.1-5.8-5.6-5.1-4.1-7.8 2.4-4.5zm158.2 8.6c-3.7 3.3-23.7 17.1-28.5 19.6-3.7 2-9.5-2.7-9.5-7.7 0-1.6.6-2.1 2.8-2.1 7.6 0 18.4-6.9 24.5-15.8l2.8-3.9 6 3.1 6 3.1-4.1 3.7zm168.5-3.9c-2.2 5.3-2.7 4.6-.7-.8.9-2.6 1.8-4.2 2-3.7.1.5-.4 2.5-1.3 4.5zM372 332c5 1.2 11 4 11 5.3 0 .4-2 3-4.6 5.7-4.3 4.6-10.5 8.5-12.4 7.8-.9-.3-15-17.3-15-18.1 0-1.6 14.9-2 21-.7zm315.3 1.1c10.2 5.1 14.1 10.3 15.2 20l.6 5.4-2.4-6.1c-3.7-9.5-6.4-13-14.6-18.5-5.3-3.4-4.7-3.8 1.2-.8zM479.5 335c.3.5 2.6 1 5.1 1h4.5l-.7 3.7c-.4 2.1-.8 4-1 4.2-.2.2-2.4-.4-4.9-1.3-5.2-2-8-5.2-6.3-7.3 1.3-1.6 2.5-1.7 3.3-.3zm-138.8 2.1c1.6 1.6.5 3.9-1.8 3.9-1.2 0-1.9-.7-1.9-1.8 0-3.1 1.7-4.1 3.7-2.1zm4.3 6.9c-3.1 7.5-22.3 15.1-53.3 21-12.9 2.4-12.7 2.4-12.7.5 0-.8.9-1.5 1.9-1.5 4.1 0 30-5.2 38.1-7.6 16.1-4.8 25.8-11.1 26.1-16.7.1-1.8.2-1.9.6-.4.3 1-.1 3.1-.7 4.7zm154.2-1.3c-.6 3.7-.9 4-2.9 3.2-1.7-.6-2.3-1.6-2.3-3.8 0-2.5.4-3 2.8-3.3 1.5-.2 2.8-.3 2.9-.3.2.1-.1 2-.5 4.2zm-42.7-2.1c8.6.5 12.2 1 12.8 2 1.5 2.6 9.8 6.6 15 7.3l5.2.7-7 1.3c-6.4 1.2-7.6 1.2-13.7-.7-5.6-1.8-8.2-2-17.5-1.5l-11 .6-2.6-2.9c-1.5-1.5-3.1-4.1-3.7-5.7l-1-2.9 5.8.6c3.1.4 11.1.9 17.7 1.2zm215.6 3.4c1.6 1.2 2.9 2.6 2.9 3.2 0 1.2-8.6-3.6-11.5-6.4-2-2-2-2 1.8-.4 2.1.8 5.1 2.5 6.8 3.6zm-276.8-2c1.6 1.3 2.8 3.5 3.2 5.9.4 2.6 1.4 4.2 3 5.1 3.1 1.7 6.7 6.7 6.3 8.8-.4 2.2-11.1 6.1-19.1 6.9l-5.8.6-6.9-6.8-6.9-6.9 6.4-3.8c3.5-2.1 7.6-5.3 9-7.1 2.3-2.7 4.6-4.1 7.6-4.6.4-.1 1.8.8 3.2 1.9zm328.7 0c-.6 1.1-1.3 2-1.6 2-.2 0 0-.9.6-2s1.3-2 1.6-2c.2 0 0 .9-.6 2zm-396.2 1.3c.4 2-2.5 3.4-4 1.9s-.1-4.4 1.9-4c1 .2 1.9 1.1 2.1 2.1zm242.5.2c-.3.9-.8 1.4-1 1.1-.3-.3-.2-.9.2-1.5.9-1.6 1.5-1.3.8.4zm144.3 1.3c-1.7 1.6-1.8 1.6-.5-.5.7-1.2 1.5-2 1.8-1.7.3.2-.3 1.2-1.3 2.2zm-103.5.9c-1.2 2-1.4 1.4-.5-1.2.4-.9.9-1.4 1.1-1.1.3.2 0 1.3-.6 2.3zm9.3 7.9c-2 4.9-4 9.3-4.5 9.9-.5.5.9-3.7 3.2-9.3 2.3-5.7 4.3-10.1 4.5-9.9.2.2-1.2 4.4-3.2 9.3zm-307.7-6c.8 2.2-1.8 3.7-3.6 2-.7-.8-1-1.9-.7-2.5 1-1.6 3.6-1.3 4.3.5zm284.7 4.1c-.9 7.7-1.4 9.3-2.9 9.3-1.7 0-3.5-3-3.5-5.8 0-1.1-.7-2.5-1.5-3.2-.8-.7-1.2-1.7-.9-2.2.8-1.3 4.4-2.7 7.1-2.7 2.1-.1 2.2.2 1.7 4.6zm11.7-1c-1.2 2-1.4 1.4-.5-1.2.4-.9.9-1.4 1.1-1.1.3.2 0 1.3-.6 2.3zm28 1c-1.2 2-1.4 1.4-.5-1.2.4-.9.9-1.4 1.1-1.1.3.2 0 1.3-.6 2.3zm145.7 1.9c1.3-.8 5.2 9.5 5.1 13.2-.1 2-.2 2.2-.6.7-.8-4.1-4.7-11.5-5.9-11.5-1 0-1 .9.1 4.1.8 2.3 1.5 5.1 1.4 6.3-.1 1.7-.2 1.6-.9-.6-.4-1.5-1.9-4.2-3.2-6l-2.3-3.3-.6 5.5-.6 5.5-.1-5.2c-.1-2.8-.7-6.4-1.2-8l-1-2.8 1.9 2.2c3.3 3.9 3.6 3 1.3-3.7-.3-.8.9-.2 2.6 1.4 1.7 1.5 3.5 2.5 4 2.2zm-352.1-.2c2 1.7 3.6 4.5 4.8 8.6 2.1 7.1 5 9.8 13 12.4 16.8 5.3 28.5 5.5 50 .5 28.2-6.6 37.9-9.1 40-10.5 2.1-1.4 2.3-1.3 2.9 1.7 1.6 8 .6 19.1-2.5 28.7-2.5 8.1-3 11-2.9 19.1.1 5.3.1 10.4.1 11.3-.1 1-2.6 3.6-5.6 5.9-7 5.3-9.5 10.3-9.5 19.3 0 8.7 2.3 13.1 9.9 19.1 7.8 6.1 8.8 8.6 6.8 16.8-.9 3.4-2.9 9.5-4.5 13.5l-2.8 7.4-9.5.2c-11.4.2-15.7 2-19.9 8.4-1.6 2.4-3.1 4.9-3.3 5.5-.2.8-1.3.5-3.2-.7l-2.8-1.8.6 3.6c.8 4.9-.4 7.6-5.5 13.2-5.5 5.9-7 6.7-23.3 10.9l-13.6 3.6-8.7-8.9-8.7-8.9-11-.5c-9.4-.4-12.2-.9-18.8-3.6-8.5-3.4-11.3-3.8-16.7-2.1-6 1.8-21.5 1.1-35.5-1.6-7.1-1.4-18.4-2.8-25-3.2-9.2-.4-14.2-1.3-21.5-3.5-7.6-2.4-12.3-3.1-23.5-3.7l-14-.8-13-6.6c-7.1-3.6-14.8-7.1-17-7.7-2.2-.7-12.1-1.5-22-1.9-17-.6-18.4-.8-23.8-3.4-3.1-1.6-5.7-3.2-5.7-3.6 0-1.7 8.1-13.2 12-17.1 5.4-5.4 12-9.5 27-16.7 6.9-3.3 18.9-9.8 26.6-14.5 7.8-4.7 15-8.8 16-9.1 1.1-.3 9.8-1.3 19.4-2.3l17.5-1.6 15-9.3c8.3-5.2 17.6-11.4 20.9-13.8 6-4.5 44.6-27.9 47.9-29.1 1.1-.3 2.1-1.5 2.4-2.6.3-1.3 1.4-2 2.9-2 1.2 0 5.9-1.1 10.3-2.5 9.4-3 11.4-5 10.5-10.7-.6-3.7-.5-3.8 3.7-5.8 6-2.7 10.1-2.5 13.6.4zm199.2 6.5c-1.8 4.4-3.4 7.9-3.6 7.7-.2-.2 1.1-4 2.8-8.5 1.8-4.4 3.4-7.9 3.6-7.7.2.2-1.1 4-2.8 8.5zm15.6 2.2c-2 5.2-4.1 9.8-4.6 10.4-1 .9 1.4-5.9 5.6-16.3 3.4-8.3 2.5-3.4-1 5.9zm-127.8-3.5c-1 1-4.7-2.6-4.7-4.5 0-1.1.7-.8 2.7 1.1 1.5 1.5 2.4 3.1 2 3.4zm89.4-2.9c-1.2 2-1.4 1.4-.5-1.2.4-.9.9-1.4 1.1-1.1.3.2 0 1.3-.6 2.3zm-100.7 0c.8-.3 1.7.1 2 .9.8 2-1.8 1.8-4.1-.4-1-.9-1.3-1.3-.6-.8.7.4 1.9.6 2.7.3zm261.9 5.3c.4 0 .7-1 .8-2.3.1-1.5.5-1 1.4 1.8 1.9 5.6 1.9 7.8 0 7.1-1.1-.4-1.5.2-1.5 2.2-.1 2.6-.1 2.6-2-1s-4-5.7-4-4.1c0 .4.7 3 1.5 5.7s1.5 6.1 1.4 7.5c-.1 1.8-.4 1.2-1-1.7-.8-4.3-3.7-10.2-5-10.2-.4 0-.9.6-1.2 1.2-.2.7-.6-.2-.9-1.9-.4-3.1-.4-3.2 1.4-1.6 2 1.8 2.3.8.8-3.4l-1-2.8 2.4 2.7c3.7 4.1 4.9 3.4 2.6-1.5l-2.1-4.2 2.9 3.2c1.6 1.8 3.2 3.3 3.5 3.3zm-112 4.8c-2 5.1-3.8 9-4 8.8-.2-.2 1.3-4.5 3.3-9.5 2-5.1 3.8-9 4-8.8.2.2-1.3 4.5-3.3 9.5zm-479.5 6.1c-8.5 8.2-19 19.2-23.3 24.5-4.3 5.3-8.1 9.4-8.3 9.2-1.3-1.4 6.6-12.4 14.8-20.7 8-8 30.6-27.9 31.9-27.9.2 0-6.6 6.7-15.1 14.9zm280.3-10.8c7.9 2.2 16 4.1 18 4.2 2.3.1 6.4-1.3 12-3.9l8.4-4.1 2.7 2c1.4 1 4.8 2.1 7.4 2.4 2.7.2 7.3 1.1 10.2 2.1l5.3 1.7-17.3 4.2c-9.5 2.3-21.1 4.5-25.8 4.8-7.6.6-9.5.4-17.5-2-15.4-4.7-18.2-6.1-19-10.1-.5-3-.1-5.4.9-5.4.2 0 6.8 1.8 14.7 4.1zm205 .6c-1.2 2-1.4 1.4-.5-1.2.4-.9.9-1.4 1.1-1.1.3.2 0 1.3-.6 2.3zm5.2 7c-1.9 4.9-3.9 9.2-4.4 9.8-.8.8.9-3.7 5.6-15.3.8-1.7 1.6-3.2 1.9-3.2.2 0-1.1 3.9-3.1 8.7zm-95.5-6.1l3.7 1.6-5 1.3c-2.7.7-5.1 1.2-5.3 1.1-.4-.5 1.7-5.6 2.3-5.6.3 0 2.2.7 4.3 1.6zm175.3.1c3.5 2.1 5.4 5.9 6.9 14.2 1 5.8 1 6.5-.8 8.1-1.9 1.8-1.9 2.2-.5 11.1 1.3 8.1 1.3 10.3 0 17.9-1.5 9.1-4.6 16.5-9.4 22.5-3 3.8-4.3 4.4-4.3 2 0-2.5-8-10.4-12.5-12.4-5.7-2.5-13.4-4.1-20.1-4.1-7.2 0-6.1 1.5 1.7 2.4 15.5 1.8 26.9 10.2 26.9 19.7 0 3.8-3.7 11.3-9.6 19.6-8.4 11.8-9.7 16.8-6.9 27.3.8 3 1.5 6.8 1.5 8.3 0 4.6-3.6 10.2-8.6 13.5l-4.7 3.1-17.3-.6-17.3-.6-4.5 3.7c-5 4-11.6 15.9-11.6 20.7 0 2.2-1.1 3.6-4.6 6.4-6.2 4.7-9.4 4.7-5.9.1.8-1.1 1.5-3.6 1.4-5.5v-3.6l-2.3 5c-2 4.4-2.3 4.8-3.3 3.1-.8-1.4-.7-2.8.3-5.2.8-1.8 1.4-4.8 1.3-6.6 0-3.2-.1-3.1-2.5 2.1l-2.4 5.4-2.5-2.3c-2.3-2.1-2.3-2.4-1-5.1.8-1.5 1.5-4.3 1.4-6.1 0-3.2-.1-3.1-2.4 2l-2.4 5.3-4-3.2c-3.5-2.8-5.1-3.3-12.1-3.9-6-.5-8.9-1.3-11.1-2.9-1.6-1.2-4.6-3.3-6.6-4.7-2.1-1.4-3.9-2.6-4-2.8-.1-.1 1.2 0 3 .2 2.3.2 4.4-.5 7.7-2.7 2.5-1.7 5-3.1 5.7-3.1 1.6 0 3.3 3.2 3.3 6.4 0 3.8 1 5.5 4.1 7.1 3.6 1.9 7.9 1.9 10.7-.1 1.9-1.3 2.2-2.3 2-8.3-.2-6.4 0-7.2 4.1-14 3.8-6.2 4.4-8.1 4.9-14.2.5-7.1-1.3-20.4-2.8-21.4-.5-.3-2.1 1.4-3.7 3.7-3.7 5.6-6.2 5.6-8.8.1-1.1-2.3-2.3-4.4-2.7-4.8-1.2-1.2-9.3 3.1-12.5 6.8-2.9 3.3-5.3 10.4-5.3 15.6 0 3.2-3 10.4-5.3 12.9-1.2 1.3-3.9 3.3-5.9 4.3-3 1.5-3.8 2.5-3.8 4.7 0 1.5.5 3.3 1.2 4 .9.9.5 1.2-2 1.2-3.6 0-3.8-.6-1.7-5.7 1.7-4.1 1.8-4.3.7-4.3-1.2 0-4.2 5.6-4.2 7.9 0 1.7-.6 2.1-3.5 2.1-2.5 0-3.5-.4-3.5-1.5 0-1.8 2.8-8.7 3.8-9.5.4-.3 3.9-4.3 7.8-9 8.4-10 9.9-11.6 14.3-15.3 1.9-1.5 3.1-3 2.8-3.3-.7-.7-12.2 5.2-17.5 9-4.2 2.9-8 8.2-6.8 9.3.3.3 1.3 0 2.2-.8 2.2-1.8-3 8.5-5.7 11.4-1 1.1-2.6 4-3.5 6.4-1.2 3-2.3 4.3-3.5 4.3-1.8 0-1.8-.2-.4-3.6 2.3-5.6 1.8-7.2-1-3.4-1.4 1.9-2.5 4.2-2.5 5.1 0 2.6-2 3.4-3.8 1.6-1.4-1.4-1.3-2.2.6-8.2 2.9-8.6 3-19.3.2-25-2-4.1-4.7-6-20.4-14.8-12.3-6.9-17.4-16.4-13.1-24.6.8-1.6 4.2-5.4 7.6-8.4l6.2-5.5.2-12.9c.1-10.3.6-14.1 2.4-19.1 2.9-8.5 6.5-13.7 10.9-15.9 7.7-3.7 29.1-1.2 42.9 5.1 7.2 3.4 6.7 1.8-.9-2.7-9.2-5.5-18.6-8.2-28.5-8.2-4.6 0-8.3-.1-8.3-.3 0-.2.7-1.6 1.5-3.2 1.7-3.4 2.7-3.5 12.5-2 17 2.7 39 13 57.8 27.1 5.1 3.8 9.6 6.9 10 6.9 1.7 0-20.8-21.1-26.8-25.2-1.7-1.1.4-.8 7 1.3 17.8 5.5 51.2 14 53.1 13.4 3.9-1.3 5.6-5.2 7.5-17 1.7-10.9 1.9-11.6 3.8-11.1 1.2.3 2.6.6 3.2.6.6 0 1.6 1.8 2.3 4 .6 2.1 1.6 4.2 2.2 4.6.6.3 3.7-1.2 6.9-3.5 5.3-3.8 5.8-3.9 6.3-2.1.7 2.5 2.7 2.5 7.7 0 4.5-2.3 7.1-2.5 8.8-.8.9.9 1.9.7 4.3-1.1 3.8-2.8 10.8-6 13.2-6.1 1.1 0 3.2.8 4.8 1.7zm-71.6 6.5c-4.3 11.5-4.6 12.1-5 11.6-.3-.3.7-3.4 2.1-6.9 1.5-3.5 3-7.4 3.5-8.7.5-1.2 1.1-2.2 1.3-2.2.3 0-.6 2.8-1.9 6.2zm-15.4-2.5c-1.2 2-1.4 1.4-.5-1.2.4-.9.9-1.4 1.1-1.1.3.2 0 1.3-.6 2.3zm19 5.6c-1.2 3.5-2.8 7.3-3.6 8.3-.8 1-.3-1.3 1.1-5.1 1.5-3.9 2.9-7.8 3.2-8.8.2-1 .7-1.6.9-1.3.3.3-.5 3.4-1.6 6.9zm-21-.6c-1.2 2-1.4 1.4-.5-1.2.4-.9.9-1.4 1.1-1.1.3.2 0 1.3-.6 2.3zm124.6.5c-.3.7-.5.2-.5-1.2s.2-1.9.5-1.3c.2.7.2 1.9 0 2.5zm-13 4c-.3.7-.5.2-.5-1.2s.2-1.9.5-1.3c.2.7.2 1.9 0 2.5zm-113.6.1c-1 .9-1.1.8-.5-.6.3-1 .9-1.5 1.2-1.2.3.3 0 1.1-.7 1.8zm-318.1.8c-4.9 3.9-23.7 12.7-36.3 16.9-7.1 2.3-13 4-13.2 3.8-.3-.2 2.6-1.5 6.3-2.8 7.5-2.6 32-13.3 39.7-17.3 6-3.2 6.8-3.3 3.5-.6zm554.1 2.5c.9 1.1.2.9-1.8-.6-1.8-1.3-3.3-2.5-3.3-2.7 0-.8 3.8 1.7 5.1 3.3zm4 3.1c1.3 1.6 1.2 1.7-.3.4-1-.7-1.8-1.5-1.8-1.7 0-.8.8-.3 2.1 1.3zm-588.3 17.8c-1 1-20.4 7.5-22.3 7.4-1.1 0 3.2-1.8 9.5-3.9 11.6-3.8 13.8-4.4 12.8-3.5zm614.8 32.6c5.1 6.7 13.4 19.8 13.4 21.3 0 .5-1.4-1.2-3.1-3.8-3.8-6.1-16.3-22.7-24.1-32l-6-7.1 7.6 7.8c4.2 4.3 9.6 10.5 12.2 13.8zm-837-6.9c-1.3 2.9-2.8 6.4-3.5 7.8l-1.1 2.5.6-2.5c.8-3.2 5.1-13 5.8-13 .3 0-.5 2.4-1.8 5.2zm153.9-2.7c5.9 1.4 5.9 1.4 1 .8-2.7-.3-8.8-.9-13.5-1.3l-8.5-.7 7.5-.1c4.1-.1 10.2.5 13.5 1.3zm9.2 2.1c-.3.3-1.2.4-1.9.1-.8-.3-.5-.6.6-.6 1.1-.1 1.7.2 1.3.5zm-118 40.6c-.3.8-.6.5-.6-.6-.1-1.1.2-1.7.5-1.3.3.3.4 1.2.1 1.9zm8.9 12.5c4 2.8 11 6.3 15.8 7.9l4.1 1.3-4-.6c-12.1-1.8-24.5-10.8-24.5-17.9 0-1.1 1.1-.1 2.9 2.8 1.6 2.5 4.2 5.4 5.7 6.5zm911.7 21.8c5.4 27.8 7 41 7 60 0 17.5-1.3 27.1-4.7 34.5-1.2 2.5-1.5 2.8-1.1 1 4-20.1 2.8-54.2-3.5-99-2.2-16-2.2-15.5-1.6-14.9.2.2 2 8.5 3.9 18.4zm-506.9-10.8c-1.2 6.7-4.5 15.7-7.1 19.1-3 4-2.6 5 1 2.1 3.1-2.4 7-8.8 10.3-16.7 2.3-5.5 2.4-5.6 2.4-2.2 0 3.4-3.3 11.2-6.6 15.7-2.8 3.9-.1 2.5 6-2.9 5.7-5.1 5.8-5.1 4.1-1.7-1 1.9-2.8 4.7-4 6.4-4.9 6.7-3.8 7.6 2.6 1.8l4-3.7-1.7 3.7c-1.2 2.5-2.8 4-4.9 4.7-4.8 1.6-16.8 3.9-17.6 3.5-1.1-.8.6-6.5 3.8-13 1.7-3.3 4.1-9.3 5.3-13.3 2.5-7.9 3.5-9.3 2.4-3.5zm-380.7-1.1c-.3.3-1.2.4-1.9.1-.8-.3-.5-.6.6-.6 1.1-.1 1.7.2 1.3.5zm-43 7c-.3.3-1.2.4-1.9.1-.8-.3-.5-.6.6-.6 1.1-.1 1.7.2 1.3.5zm37.6.1c-1.3.2-3.5.2-5 0-1.6-.2-.5-.4 2.2-.4 2.8 0 4 .2 2.8.4zm-13.8 1.3c-3.4.3-9.4.4-13.5 0-6.4-.6-5.5-.7 6-.7 10.1 0 12 .1 7.5.7zm30.4 1.6c-4.5 5-16.3 11.7-26.3 15-13.2 4.5-14.4 4.2-2.6-.5 9.8-3.9 22.3-10.5 27.5-14.6 3.9-3.2 4.4-3.1 1.4.1zm350.8 11c-.3.3-1.2.4-1.9.1-.8-.3-.5-.6.6-.6 1.1-.1 1.7.2 1.3.5zM289 527.1c-10 3.5-30.6 6.8-44.3 7-7 .1-13-.1-13.4-.4-.3-.4 3.3-.7 8.1-.7 8.7 0 36.2-3.8 46.6-6.4 7.9-2 9.4-1.8 3 .5zm384.9 30.8c1.1 1.9 1 3-.3 6.5-.9 2.2-2.5 5.2-3.5 6.5l-1.9 2.5-4.6-7.2c-4.8-7.6-5.5-9.5-3.2-8.6 1.1.4 1.3-.3.9-3.8l-.5-4.3 2.6 5 2.6 5-.5-6.5c-.3-3.6-.8-8.1-1.1-10-.3-2.4.3-1.5 1.9 3 4 11.1 4.7 11.6 4 2.4-.3-4.5-.2-9.9.3-12 .7-3.3.9-2 1.4 7.6.4 6.3 1.2 12.6 1.9 13.9zm6.7-17.7c-.6 7.4-3.3 16.8-4.8 16.8-1 0-.9-11 .1-17 .5-2.5.9-3.9 1-3.3.2 2.2 2 1.4 2.7-1.2 1.2-4.8 1.7-2.5 1 4.7zm280.4-2.9c7 2.7 20 10.7 20 12.4 0 .5-1.3-.2-6.8-3.9-4.5-3.1-12.5-6.9-20.7-9.8-2.7-1-4.1-1.9-3-1.9 1.1 0 5.8 1.4 10.5 3.2zm-7.3 13.6c4.7 6.5 10.3 18.9 10.2 22.6 0 1.1-1.5-.9-3.2-4.5-3.8-7.8-9.5-17.2-15.6-26l-4.4-6.5 4.2 4c2.3 2.2 6.3 6.9 8.8 10.4zM392 586c1.1 14.6 5.4 53.5 6.5 59 .3 1.4-.6-.9-1.9-5-2.6-7.6-7-33.1-8.1-45.5-.8-10.6-.8-38.2.2-46.6.7-7.3.8-7.1 1.4 7.6.4 8.2 1.3 22 1.9 30.5zm170.4-42.4c1.7.7 2.1 2.9.7 3.8-1.7 1.1-3.9-.5-3.4-2.5.6-2.1.6-2.1 2.7-1.3zm-7.7 1.2c.8.5.9 1.2.2 2.2-.8 1.3-1 1.3-1.9 0-1.8-2.7-.9-3.9 1.7-2.2zm27.6 4.7c-1.1 2.3-2 3.2-2.7 2.5-1.2-1.2 1.2-6 3.1-6 1 0 .9.8-.4 3.5zm-105.9 1.2c-3.9 9-12 35.5-16.9 55.8-7.8 31.8-13.9 64.6-20.4 108.8-1.6 10.3-3 18.9-3.2 19.2-.4.4-30.1-2.4-30.7-2.9-1.2-1.2 5.8-39.7 14.4-80.1l10.5-49 8.6-22c10.2-26.4 10.7-27.4 13.6-27.9 1.2-.2 5.4-1 9.2-1.6 3.9-.6 8.4-1.7 10-2.5 1.7-.7 3.8-1.4 4.8-1.4 1.6-.1 1.6.1.1 3.6zm110.2 1.9c-1.3 2.8-2 3.4-2.8 2.6-.9-.9-.7-2.1.6-4.8 1.3-2.8 2-3.4 2.8-2.6.9.9.7 2.1-.6 4.8zm-10.6-3.7c0 1.8-2.4 3-3.7 2-1.9-1.7-1.6-2.4 1.2-2.5 1.4-.1 2.5.1 2.5.5zM366 581c1.9 40.1 4.5 78.8 8.5 124l.4 5.5-1.4-6c-2.3-10-7.3-61.4-8.4-87-.6-13.2-1-34.1-.9-46.5.2-24.2.2-24 1.8 10zm203.4-29.5c2.1 2.1 2.2 2.6 1 3.6-1.2 1-1.9.8-3.5-.7-1.2-1.3-1.7-2.7-1.3-3.7.8-2.2.8-2.2 3.8.8zm27.6 3.1c.7 3.7-3.1 7.4-5.5 5.4-1.8-1.5-2-6.3-.4-9.1.9-1.9 1.3-1.9 3.2-.6 1.2.8 2.4 2.7 2.7 4.3zm-35.7-1.8c.3.4.1 1.8-.4 3.1-.9 2.3-1 2.4-2.4.5-.8-1-1.5-2.9-1.5-4.2 0-1.9.3-2.1 1.9-1.2 1.1.5 2.2 1.3 2.4 1.8zm-475.5.7c11.1 2.3 23.1 6 33 10 7.6 3.1 3.8 2.6-8.2-1-6.4-2-19.2-5.3-28.4-7.4-19.3-4.5-16.4-5.8 3.6-1.6zm566.1.5c-1.2 3.4-2.4 3.8-3.8 1.3-.7-1.3-.5-2.1.7-3 3-2.3 4.2-1.6 3.1 1.7zm-72.6 4.1c2.5 2.6 2.9 3.4 1.9 4.8-.7.9-2 2.8-3 4.3-2.3 3.7-2.9 3.5-2.4-1 .3-3.4.2-3.5-1.2-1.9-2.4 3-3 .1-.9-4.8 1-2.5 1.9-4.5 2.1-4.5.2 0 1.8 1.4 3.5 3.1zm24.6 5c-3.8 2.3-5.3-3.1-1.6-6.1l2.2-1.8.3 3.5c.2 2.1-.2 3.9-.9 4.4zm-447.7-4.2c20.1 7.4 73.7 22.1 102.3 28.1 18.7 4 19 5.1.6 2.4-21-3-44.2-9-72.6-18.6-15.2-5.1-35.7-12.6-36.4-13.4-.8-.8.9-.4 6.1 1.5zm411.8 4.3c0 1-.3 1.8-.7 1.8-1.4 0-4.3-3.4-4.3-5.2 0-1.8.1-1.8 2.5-.1 1.3 1 2.5 2.6 2.5 3.5zm21-.7c.7.8 2.1 1.5 3.1 1.5 1.7 0 1.7.3-.3 6-2 6.1-4 7.4-4.6 3.2-.4-2.6-2.2-2.9-2.3-.5 0 1.1-.3 1.3-.6.6-.6-1.7 1.6-12.3 2.6-12.3.5 0 1.4.7 2.1 1.5zm23.7.5l2.5 1.9-2.7.7c-3 .7-5.1-.7-4.2-3 .8-2.1 1.4-2 4.4.4zm11.1 2.9c.3.8-.1 1.2-.9.9-.7-.2-1.5-1-1.7-1.7-.3-.8.1-1.2.9-.9.7.2 1.5 1 1.7 1.7zm-18.1 1.6c.2.1-.7 2.5-1.9 5.4-2.1 4.9-2.4 5.1-5.3 4.5-1.6-.3-3.1-.7-3.3-.9-.1-.1.3-2.5 1-5.3l1.1-5.2 4.1.7c2.3.3 4.2.7 4.3.8zm12.3 2.2c-.1 1-1.2 3.1-2.6 4.8-1.5 1.6-2.3 2.4-2 1.7 1-1.7-.4-1.5-2.6.5-1.7 1.5-1.8 1.4-1.8-3s.1-4.6 3.3-5c1.7-.2 3.8-.5 4.5-.5.6-.1 1.2.6 1.2 1.5zm9.9.7c.8 1 .8 1.6-.1 2.3-2.5 1.9-4.6 2.2-5.2.7-1.1-2.9-.7-3.5 3.5-4.3.4 0 1.2.5 1.8 1.3zm-144.5 6.8c-1.6 1.8-3 3.5-3.1 3.7-.2.2-.3-1.1-.3-3 0-2.5.3-3 1-1.9.8 1.3 1.1 1.3 2.7-.3 3-3 2.8-1.9-.3 1.5zm67.3-1c-.3.8-.6.5-.6-.6-.1-1.1.2-1.7.5-1.3.3.3.4 1.2.1 1.9zM774 617.5c-2.2 20.4-7.5 45.3-14.7 68.5-4.5 14.6-15.4 45.2-16 44.7-.2-.2.1-1.7.7-3.3 2.7-7.1 12.4-47.1 16.9-69.9 4.3-21.8 10.4-58.3 12.8-77 1.4-10.4 1.6 24.4.3 37zm-33.3-39.3c-.3.8-.6.5-.6-.6-.1-1.1.2-1.7.5-1.3.3.3.4 1.2.1 1.9zm170.7 6.4c-4.3 11.5-9.4 19.4-17.9 28-6.5 6.6-9.7 8.9-17.5 12.7-5.2 2.6-10.2 4.7-11 4.7-.8-.1 1.6-1.7 5.5-3.7 15.3-7.8 34.3-28.3 40.5-43.5 3.3-8 3.6-6.6.4 1.8zm-390.7-2.9c-.3 1-.5.4-.5-1.2 0-1.7.2-2.4.5-1.8.2.7.2 2.1 0 3zm226.9 32.8c1.4 14.5 1.4 19.8.3 36.5-.6 10.7-1.5 20.6-1.9 22-.4 1.4-1-11.7-1.3-29-.3-17.3-1.3-38-2.1-46-2-19-1.9-20.2 1-9.5 1.5 5.5 3.1 15.7 4 26zm58.9-26.8c-1.2 11.4-5.5 27.3-10 36.9-5.1 11-7.6 13.3-3.4 3.2 3.5-8.5 10-30.4 11.9-40.1.8-3.7 1.6-6.7 1.8-6.7.2 0 .1 3-.3 6.7zm-329.8 1.5c-.2 1.3-.4.5-.4-1.7-.1-2.2.1-3.2.4-2.3.2 1 .2 2.8 0 4zm159-2c-.3.7-.5.2-.5-1.2s.2-1.9.5-1.3c.2.7.2 1.9 0 2.5zm-355.4 4.5c-.7.2-1.9.2-2.5 0-.7-.3-.2-.5 1.2-.5s1.9.2 1.3.5zM716 599c3.6 2.1 8.1 5.4 10 7.2l3.5 3.3-1.1 33c-.7 18.1-2 52.7-3 76.9l-1.8 43.8-12.5-.6c-16.4-.9-16.2-.9-15.6-5.4.2-2 .7-9.6 1-16.7 2.2-52.9 3.5-90.4 4.1-117.2l.7-31.1 4.1 1.4c2.3.8 7 3.2 10.6 5.4zm-36.3 1.6c-.3.3-1.2.4-1.9.1-.8-.3-.5-.6.6-.6 1.1-.1 1.7.2 1.3.5zm-100 2.6c-.3.8-.6.5-.6-.6-.1-1.1.2-1.7.5-1.3.3.3.4 1.2.1 1.9zm95.1-1.5c-1 .2-2.8.2-4 0-1.3-.2-.5-.4 1.7-.4 2.2-.1 3.2.1 2.3.4zm-144.3 10.9c11.7 7.8 20 15.1 24 21.3 2.5 3.6 2.7 3.7 14.5 6l12.1 2.3 5.7-3c12.8-6.8 41.6-17.6 42.6-16 .1.1 1.7 7.9 3.5 17.1 3.5 17.7 4.2 27.5 2.3 34.2-1.3 4.6-8.2 16.5-10.4 17.8-1.1.7-6.4-2.5-20.4-12.5-21.6-15.4-21.4-15.2-21.4-14 0 .5 8.3 6.9 18.5 14.2 18.4 13.2 24 18.8 13.3 13.4-5.7-2.8-20.7-13-30.1-20.2-3.1-2.5-5.9-4.3-6.2-4.1-.2.3-8.8 66.4-19 146.9-10.3 80.6-18.8 146.6-19 146.8-.2.2-.8.2-1.2.1-.5-.2 7.5-66.8 17.8-147.9 10.4-81.1 18.5-147.8 18.1-148.2-.4-.4-5.6-1.7-11.5-2.9l-10.8-2.1-16.7 5c-15.2 4.7-28 8.2-29.6 8.2-.3 0-.6-.8-.6-1.8 0-1.4 4-2.8 22-7.6 12.1-3.2 21.8-6.1 21.6-6.4-.3-.2-11.1 2.2-24.1 5.4-23.1 5.8-23.7 5.9-25.1 4-1.7-2.4-1.9-18.5-.4-26.6 1.8-9.5 16.2-38.6 18.4-37.3.6.3 6.1 3.9 12.1 7.9zm-335-2c20.1 2 44.2 5.8 59.7 9.4 14.6 3.3 33.8 9.1 32.3 9.7-1 .3-128-20.1-131.5-21.2-2.9-.9 24.7.6 39.5 2.1zm397.5 2.8c0 .2-.7.7-1.6 1-.8.3-1.2.2-.9-.4.6-1 2.5-1.4 2.5-.6zm18 .9c0 .2-1.5 1.6-3.2 3.3l-3.3 2.9 2.9-3.3c2.8-3 3.6-3.7 3.6-2.9zm21.2 3.2c.3 1.4.1 2.8-.3 3.1-.5.3-.9-.9-.9-2.5 0-3.8.6-4 1.2-.6zm-39.5 4.2c-.3 1-.5.4-.5-1.2 0-1.7.2-2.4.5-1.8.2.7.2 2.1 0 3zm22 1c-.3 1-.5.4-.5-1.2 0-1.7.2-2.4.5-1.8.2.7.2 2.1 0 3zm122-1.5c-.3.8-.6.5-.6-.6-.1-1.1.2-1.7.5-1.3.3.3.4 1.2.1 1.9zm-145 7.5c-.3 1-.5.4-.5-1.2 0-1.7.2-2.4.5-1.8.2.7.2 2.1 0 3zm-30.2.2c.3.5.1 1.2-.5 1.6-.5.3-1-.1-1-.9 0-1.8.6-2.1 1.5-.7zM679.8 722c.2 61.1-3.8 96.7-12.4 111.7-4.9 8.5-7.1 8.6-3.7.2 4.6-11.3 8.3-35.5 10.8-70.4 1.7-24.5 3.4-65.7 3.7-90l.2-17 .6 15c.4 8.2.8 31 .8 50.5zm-195.1-55.3c-.3 1-.5.2-.5-1.7s.2-2.7.5-1.8c.2 1 .2 2.6 0 3.5zm-162.3 14.9c2.3 12.7 2.1 26.7-.5 37.6-1.2 4.9-2.3 8.8-2.4 8.6-.2-.2 0-4.6.5-9.8 1.2-12.6 1.2-27 0-36.7-.5-4.3-1.2-9.4-1.4-11.3l-.4-3.5 1.3 3.1c.8 1.7 2.1 7.1 2.9 12zm167.7 22.9c5.6 34.7 12.8 60.8 21.5 77.7 3.2 6.3 1.5 6.1-3.6-.3-4.4-5.6-7-10.9-10.6-21.9-5.3-16-10.6-51-11.8-77.5l-.5-12 1.4 10.5c.8 5.8 2.4 16.3 3.6 23.5zm580.8-30.1c-2.5 2.4-47.9 20.7-67.4 27.1-14 4.7-35.2 10.1-36 9.3-.3-.3 101.3-36.5 102.9-36.7.5-.1.7.1.5.3zm-782.2 3.2c-.3.3-1.2.4-1.9.1-.8-.3-.5-.6.6-.6 1.1-.1 1.7.2 1.3.5zM565.2 688c2.5 2.6 2.9 3.6 2.4 6.3-.7 3.8-4.8 7.7-8.1 7.7-1.3 0-3.7-1.2-5.4-2.6-4.1-3.4-4.2-8-.5-11.8 3.7-3.6 7.7-3.4 11.6.4zm299.3 31c12.3 4 39.8 8.1 63 9.3 3.3.2-.8.4-9.1.5-33.2.4-57.4-4.6-65.9-13.7l-3-3.3 4.5 2.6c2.5 1.4 7.2 3.5 10.5 4.6zm-488.8-3.8c-.3.8-.6.5-.6-.6-.1-1.1.2-1.7.5-1.3.3.3.4 1.2.1 1.9zm84 9.5c-.3 1-.5.4-.5-1.2 0-1.7.2-2.4.5-1.8.2.7.2 2.1 0 3zm13.2 59.3c7.6 29.6 14.4 49.3 22.6 65.6 4.5 9 4.8 10 2.6 8.2-11.3-8.9-22.4-38.4-30.7-82.3-2.8-14.9-7.4-44.7-7.3-47.3 0-.9 2 7.7 4.5 19.3 2.4 11.5 6.2 28 8.3 36.5zM418 753.5c7.4.8 14 1.5 14.6 1.5.8 0 .8 1.6.3 5.2-2.6 17.2-12.1 107.2-16.4 155.3-1.3 15.3-2.6 27.9-2.7 28.1-.4.3-23.8-6.2-24.2-6.8-.2-.3 1.5-43.1 3.8-93.3 1.6-33.9 7.9-91.5 10.1-91.5.5 0 7.1.7 14.5 1.5zm225.7 6.2c-.3 1-.5.2-.5-1.7s.2-2.7.5-1.8c.2 1 .2 2.6 0 3.5zm-87.2 5.6c2.2 3.2 1.8 7.4-1 10.2-6.3 6.4-16.9-.4-13.4-8.7 2.4-5.9 10.7-6.7 14.4-1.5zm85.6 10.9c-2.9 31-8.7 68.4-13.5 87.3-4.4 17.5-11.7 34.5-16.5 38.9-1.4 1.3-.9-.6 2.1-8.1 9.7-24.2 18.7-63.4 25.5-111.5 1.5-10.8 2.9-19.5 3.1-19.3.2.2-.1 5.9-.7 12.7zm77.1 7.4l3.8.6-.5 7.1c-.3 4-1.2 19.8-2.1 35.2-3 56.4-8 118.2-9.6 120-.9 1-26 6.6-26.7 5.9-.2-.2 1.3-24.8 3.3-54.6 1.9-29.9 4.3-67.6 5.2-83.8.9-16.2 1.8-30.1 2-30.9.3-1 2.5-1.2 10.7-.7 5.6.4 11.9.9 13.9 1.2zm76.3.4l13 1.8H799c-8.4.1-20.2-1.7-21.8-3.2-.9-1 4.5-.5 18.3 1.4zm-432 19.1c9.3 10.4 17.3 24.6 19.1 33.9.7 3.6 1.1 6.6.9 6.8-.2.2-1.1-2.1-2-5-4.2-12.6-19.8-35.4-33-48.1l-5-4.9 6.2 4.5c3.4 2.4 9.6 8.2 13.8 12.8zm429 4.9c-.3.5-5 4.3-10.5 8.4-10.6 8-20.1 13-26.5 14-3.8.5-3.7.5 1.3-1.4 7.6-2.8 18.5-9 27.7-15.9 8.5-6.3 9-6.6 8-5.1zm-247.4 38.1c3.1 1.6 4.9 6.6 3.7 10.1-1.2 3.4-6.1 6.2-9.4 5.4-6.3-1.6-8.5-9.6-3.9-14.1 2.6-2.7 6.3-3.2 9.6-1.4zM775 860.7c-4.4 10-11.6 23.4-16.3 30.3-5.1 7.5-15.4 19.5-19.2 22.4-10.6 7.9-11 8-4.4 1 12.5-13 28.4-35.7 39.5-56.1 2.1-3.9 4-7 4.1-6.9.2.2-1.5 4.3-3.7 9.3zm-411 17.9c-1.8 18.3-7 43.7-9.4 46.1-2 2-1.6-2.4 1.2-14 3.9-16 6.8-30.2 7.7-38 1.3-10.1 1.6-5.4.5 5.9zm116.9 9.4c-.6 2.4-2.2 6.7-3.7 9.5-3.5 6.6-15.7 18.6-25.7 25.4l-8 5.4 11.1-11.4c6.1-6.3 13-14 15.3-17.3 5-6.8 10-17.3 10.2-21.3.1-2.2.3-2 .9 1.2.5 2.2.4 6-.1 8.5zm-190 32.4c3.7 4.4-9.6 41.9-22.4 63.1-7.7 12.9-16.3 24.5-18 24.5-2.3 0-2.7-1.8-1.1-4.7.8-1.6 1.5-2.2 1.6-1.6 0 1.6 2.6 1.7 3.5.2.4-.6-.2-1.3-1.4-1.6-1.9-.5-2-.7-.5-3.5 1.3-2.6 1.4-4.6.6-13.2-.5-5.5-.9-10.2-.8-10.3 0 0 1.8-.4 4-.8l3.9-.8-2.1 2.9c-1.8 2.5-2 3.7-1.4 7.9l.8 5 5.6-10.5c6.8-12.7 10.1-20.8 16.3-40.5 2.6-8.3 5.2-15.6 5.7-16.3 1.4-1.6 4.3-1.5 5.7.2zm569.5 1.8c.7 1.3 2.8 7.2 4.6 13.3 1.8 6 4.8 15 6.7 20 3.6 9.5 14.3 31.5 15.4 31.5 1.5 0 1.7-8.6.3-10.8-2-3-1.4-3.6 2.6-2.7 3 .7 3.1.9 2.6 4.3-1.7 11.8-1.8 17-.2 20.1 1.2 2.1 1.3 3 .4 2.9-.6-.2-1.4.5-1.6 1.4-.4 2.1 2.4 2.5 3 .6.3-.8.9-.4 1.7 1 1 1.8 1 2.6 0 3.8-1 1.3-1.5 1.2-3.7-.8-3.8-3.6-16.6-23.4-21.5-33.3-10.9-22-19.4-48.7-16.7-52 1.8-2.2 4.7-1.8 6.4.7zm-601 24.8c2.1 26 2.3 24-1.9 24-2.1 0-3.5-.5-3.5-1.3-.1-.6-.9-10-1.9-20.7l-1.9-19.5 2.7-2.2c2-1.6 2.9-1.9 3.7-1 .7.7 1.9 9.8 2.8 20.7zm632-19.5c.3.8 1.3 1.5 2.1 1.5 1.3 0 1.5.8 1.1 4.2-.3 2.4-1.1 9.9-1.6 16.8-1.8 22.7-1.7 22-5.6 22-2.6 0-3.4-.4-3.4-1.8 0-3.3 3.1-39.7 3.6-42 .5-2.5 2.9-3 3.8-.7zm-362.1 8.7c5.4 2.8 6.3 8.9 2.1 13.2-3.3 3.3-7.4 3.4-11 .2-7.3-6.2.5-17.9 8.9-13.4zM820 963.7c6.5 10.6 8.3 14.3 8.2 17-.1 1.9-2 10.4-4.2 18.9-2.2 8.5-4 16.6-4 18 0 3.6 8.8 18 11.8 19.4 2.9 1.3 2.9 1.3-5 6.1l-6.3 3.7-.6-3.2c-.3-1.8-10.1-19.1-21.9-38.5-16.1-26.6-22-35.5-23.9-36.3-2.1-.8-2.3-1.1-1.1-1.8.8-.5 9.6-5.8 19.5-11.9l18-11 .6 3c.4 1.7 4.4 9.1 8.9 16.6zm-472.6-2.1c8.8 4.8 17.6 9.6 19.5 10.7 3.3 2 3.3 2 1.3 3.6-1.1.9-4.8 7-8.3 13.6-8.2 15.8-9.4 17.3-14.5 19.6-4.8 2-4.9 2.4-3.3 7.8 1.1 3.6.8 4.3-7 18.8-4.5 8.3-8.1 16.3-8.1 17.8v2.7l-12.7-6.7c-7.1-3.7-16.1-8.6-20.1-10.7l-7.2-4 2.4-1.9c1.3-1 10-16.2 19.4-33.6 22-41.2 22.2-41.6 21.5-44.2-.3-1.1-.2-2.1.2-2.1s8 3.9 16.9 8.6zm431.5 42.4c6.7 14.1 13.2 26.3 14.4 27.2 2.2 1.7 1.8 1.9-17.6 11.2-10.9 5.3-20.2 9.6-20.6 9.6-.4 0-.8-1.4-.9-3-.1-4.3-24-53.7-27.1-56.1-1.3-1.1-2.2-2.1-2-2.3.2-.2 9.4-4.7 20.4-10l20-9.6.6 3.7c.3 2.1 6 15.3 12.8 29.3zm-382-17c10.6 4.4 19.6 8.2 20.2 8.5.5.4.1 1.4-1 2.3-3.1 2.7-33.4 75.9-33.3 80.4l.1 3.8-3.7-1.6c-2-.9-5.4-2.3-7.5-3.1l-3.8-1.6 2.5-2.6c1.3-1.4 3.4-5 4.5-7.9l2.1-5.3-4.2-10.5c-3-7.5-4.6-10.4-5.7-10.2-2.1.4-11.3 22.3-11.3 27-.1 2.1-.4 3.8-.9 3.8-.7 0-12.9-5-13.8-5.7-.2-.1.6-1 1.8-2 2.9-2.4 33.4-75.7 33.4-80.1-.1-1.7.2-3.2.7-3.2.4 0 9.4 3.6 19.9 8zm325.8 9.7c.1 6.7 22.6 78.9 25.5 82 1.6 1.7 1.8 2.3.7 2.7-.8.2-4.2 1.3-7.6 2.5l-6.3 2v-4.2c0-4.4-8.2-32.3-10-34.1-.7-.7-2.7-.6-6.2.3-8.8 2.3-9.8 2.8-9.8 5.5 0 4.2 9.1 32 11.2 34.3l2 2.2-7 2c-3.8 1.2-7.2 2.1-7.6 2.1-.3 0-.6-1.7-.6-3.8 0-4.7-23.1-79.6-25.3-82.3-.9-1-1.7-2.1-1.7-2.4 0-.4 13-4.5 14.4-4.5.3 0 .4 1.1 0 2.5-.7 2.8 8 33.1 10.1 35.3 1 1.1 2.5 1 8.4-.8 4-1.2 7.5-2.8 7.8-3.6.7-2-8.3-31.3-10.8-34.7-2.3-3.1-2.7-2.7 6.9-5.8 3.1-1 5.7-1.8 5.8-1.8 0-.1.1 2 .1 4.6zm-273.2 8.4c11 2.8 20.2 5.3 20.4 5.5.2.1-.4 1-1.2 1.9-1.7 1.6-3.1 6.1-7.3 22.9-1.5 6-3.4 11.5-4.3 12.3-.9.7-2.9 2.4-4.4 3.6l-2.9 2.3 2.2 4.5 2.3 4.6-4.1 16.6c-2.2 9.1-3.8 17.5-3.5 18.6.6 2.5.1 2.6-8.3.5-6.1-1.6-6.4-1.8-4.9-3.4 1.7-1.9 8.5-25.8 8.5-29.9 0-2.6-8-17-10.6-19.2-1.3-1-1.7-1-2.3 0-1.9 3-11.3 42.2-10.7 44.6.4 1.6.2 2.5-.5 2.5-1.5 0-13.3-3.1-13.8-3.6-.2-.2.4-1.3 1.3-2.3 2.6-2.9 21.8-78.4 21.3-83.7-.4-3.4-.1-4.1 1.2-3.8.9.2 10.6 2.7 21.6 5.5zM255.1 1017c-.8 2.1-1 1.6-1-3.1-.1-3.1.2-5.9.7-6.3 1.1-1.2 1.4 6.7.3 9.4zm416.9-6.5c-1.2 3.1 2.3 21.1 4.6 23.6 1.4 1.6 1.2 1.8-4.3 2.9-3.2.6-6.8 1.4-8.1 1.7-2 .5-2.1.3-1.3-1.9 1.2-3.2-.7-13.8-2.6-14.5-1.9-.7-15.1 1.6-15.8 2.8-.4.5.1 4.7 1.1 9.3l1.6 8.5 16.9 11.2c18.9 12.6 17.4 10.5 20.9 28.4 1.2 6 3 12.2 4 13.6l1.8 2.6-21.9 4.4c-12.1 2.5-22.1 4.3-22.3 4.1-.2-.2-.1-1.5.3-3s0-6.1-1-10.7c-1.9-9.1-2.7-11.5-4-11.5-.5 0-.9-.4-.9-.9 0-.9 14.7-4.1 15.4-3.3.3.2.1 1.2-.3 2.1-.9 1.6.2 10.1 1.5 12.3.7 1.2 9.6.4 13.8-1.2 2-.7 2.6-1.7 2.6-3.9 0-4.3-2-13.4-3.4-15-.6-.8-8.1-6-16.7-11.6-11.5-7.6-15.8-10.9-16.7-13.1-.6-1.6-2.1-8.1-3.3-14.4-1.2-6.3-2.9-12.7-3.9-14.1l-1.9-2.6 21.7-4.5c11.9-2.4 22-4.2 22.4-4.1.4.2.3 1.5-.2 2.8zm219.2 4.2c.4 6.8-1.3 5.1-2-1.9-.3-3.6-.1-5 .6-4.3.6.5 1.2 3.3 1.4 6.2zm-390.9 1.4c11.1 1.7 20.4 3.3 20.6 3.5.2.2-.2 1-.8 1.8-.7.8-2.3 8.6-3.6 17.3-1.3 8.7-2.7 16.6-3 17.5-.4.9-2.2 2.9-4.1 4.3-1.9 1.4-3.4 3-3.4 3.6 0 .5 1.2 2.7 2.6 4.9l2.6 4-2.1 14.7c-1.2 8.2-2.4 15.6-2.6 16.7-.2 1 0 2.9.5 4.2.8 2 .6 2.4-1 2.4-2.7 0-42.4-6.1-42.9-6.6-.2-.2.3-1.2 1.2-2.2 2.1-2.2 14.1-78.5 13.4-85-.3-3.1-.1-4.2.9-4.2.8 0 10.5 1.4 21.7 3.1zm121.7 1.3c0 .3-.4 1.6-.9 2.9-.6 1.6-.5 7.4.5 16.3 1.9 18.8 1.8 19.7-1.1 23.2-3 3.6-3.2 5.6-.4 7.6 4.1 2.8 4.8 5.2 6.4 21.2 1 9.9 2.2 16.8 3.2 18.2.8 1.3 1.3 2.6 1 2.8-.2.2-3.8.7-8 1l-7.6.7 1.1-2.9c.8-2.2.7-6.4-.4-16.7-1.7-15.6-1.4-15-12.6-23.9-4.3-3.4-6.7-4.7-7.3-4.1-1.4 1.4 2.8 42.8 4.6 46.4l1.4 2.6-5.2.7c-2.9.3-6.4.6-7.9.6-2.5 0-2.7-.2-1.8-2.6 1.5-3.8-6.4-83.9-8.6-87.1-1.1-1.8-1.2-2.4-.2-2.8.7-.2 10.1-1.3 20.8-2.3 23.1-2.3 23-2.3 23-1.8zm-65 3.2c8 .3 15.3.8 16.3 1.1 1.6.4 1.7.7.4 2.1-1.9 2.2-3 15.2-1.7 18.8.6 1.5.9 2.8.8 2.9-.2.2-3.6.1-7.6-.2-6.3-.5-7.2-.8-6.6-2.2.5-.9.8-3.6.8-6.1l.1-4.5-7.5-.7c-5.4-.6-7.8-.5-8.7.5-.8.8-1.3 5.7-1.5 14.2l-.3 13 5.7.3c3.2.2 6.7-.2 7.8-.8 1.9-1 2-.8 2 3.8 0 2.7-.3 6.3-.6 8-.5 2.6-.9 3-2.3 2.2-1-.5-4-1.2-6.7-1.5-3.8-.5-5.3-.3-6.2.8-.8.9-1.3 6.2-1.5 15.3l-.2 13.9 7.9.3c5.7.2 8.2-.1 8.7-1 1.2-1.8 1.1-6.6-.1-8.9-1-1.8-.7-1.9 4.7-1.9 3.2 0 6.8.3 8 .6 2.1.6 2.1.8.8 2.7-1.8 2.6-2.1 18.2-.4 19.3 2.9 1.8-2.5 2-22.6.8-12.1-.7-22.2-1.3-22.4-1.3-.2-.1.3-.9 1.2-1.9 1.5-1.6 2-8.2 3.9-44.1 1.7-32.1 1.9-42.7 1.1-44-1.7-2.8-.4-3.3 6.2-2.7 3.3.3 12.5.8 20.5 1.2zm243.9 28.6l3 6.8h-3.7c-4.6 0-29.2 11.7-31.5 15.1-1.6 2.3-1.7 2.2-4.7-4.4-1.6-3.7-3-7.1-3-7.6s1.3-.9 2.8-.9c3.7.1 29.7-12.4 31.4-15.1 1.6-2.6 2-2.1 5.7 6.1z"/><path d="M559.3 385.1c-1.8.5-3.3 1.4-3.3 1.9s1.3.5 3.2-.1c4.8-1.3 4.8-1.2 1.2 2.6-5.9 6.3-9.4 20.2-9.4 37.3 0 13 2.9 19.2 8.9 19.2 1.6 0 6-1.5 9.7-3.3 5.9-2.7 8-3.2 13.9-3.1 3.9 0 8.5.8 10.5 1.6l3.5 1.5-6.5 3.2c-3.6 1.7-7.3 3.1-8.2 3.1-.9 0-2 .4-2.3 1-1.7 2.8 15.2-1.4 26.1-6.5 4.2-1.9 10.6-4 14.2-4.5 7-1.2 11-2.9 13.3-5.6 1.3-1.6 1.2-1.7-.6-.9-1.1.4-4.4 1.4-7.3 2.2-4.8 1.3-5.6 1.3-9-.4-4.8-2.3-5.2-5.4-1.4-11.1l2.9-4.3 2.2 3.7c1.2 2 2.4 3.4 2.7 3.1 1.2-1.2-2.9-11-6.6-15.6-4.8-6.1-19.9-17.2-29.8-21.9-6.8-3.3-8.7-3.7-16.2-3.9-4.7-.1-10 .2-11.7.8zm45.7 3.7c0 .5 1.4 1.5 3.1 2.3 5.2 2.1 12.6 10.4 16.1 17.9 3.3 7.1 4.4 8.2 5.4 5.5.6-1.5-3.2-10.2-6.3-14.5l-1.8-2.4 3.2 2.4c5.8 4.2 9.2 10.6 11.3 21.1.6 3.3 1.9 6.4 3.1 7.5 3.2 2.9 8.2 2.3 12.6-1.4 9.7-8.2 19.9-13.2 27-13.2 1.5 0 3.5-.5 4.3-1.1 2.1-1.4-9.9-.2-17 1.8-3 .8-8.8 3.7-12.8 6.5-9.5 6.4-11.1 6.2-13.5-1.7-3.1-9.9-4-11.8-7.5-15.7-3.9-4.3-9.7-8.2-11.1-7.4-.5.3-1.5-.1-2.2-1-2.7-3.3-13.9-8.6-13.9-6.6z"/><path d="M683 402.6c-1.4.2-6.5.9-11.5 1.5-14.9 1.9-14.1 2.8 2.5 2.8 27.5.2 45 3.7 61.6 12.5 9.7 5.2 10.7 4.3 3.8-3.3-8.7-9.7-18.7-13.1-39.4-13.6-8-.2-15.6-.2-17 .1zm-7.5 17.8c-9.6 2.5-12.9 4.6-10.7 6.8.8.8 1.8.6 3.5-.5 4.7-3 13.7-5 20.1-4.3 3.4.3 7.2.9 8.6 1.3 2.2.6 2.3.5 1.2-.9-2.2-2.8-15.8-4.1-22.7-2.4zm-5.4 8.7c-5.4.9-15.1 5.5-15.1 7.1 0 1.1.5 1 4.6-.7l3.5-1.4-.7 4.7c-.9 6.5-2.8 9.2-6.3 9.2-3.8 0-8.6-4-11.6-9.9-2.2-4.1-2.4-4.3-2.5-1.9 0 4.2 1.4 7.1 6.9 13.3 2.8 3.2 5.1 6.3 5.1 6.8 0 2.6 9.2 19.9 12.5 23.5 4.9 5.4 7.4 5.7 4.2.4-3.1-5-4.7-8.9-4.7-11.3 0-1.9.2-1.8 4.8.5 6.3 3.2 9.9 7.2 14.7 16.4 4.3 8.2 6.8 10.1 11.9 8.8 3.9-1 11.6-8.4 17.4-16.9 7.7-11.3 10.4-17.2 11.1-25.2l.6-7 1.9 2.7c2.4 3.7 4.1 3.6 2.2 0-2.7-5.2-10.6-12.1-16.5-14.3-11.7-4.4-32.9-6.7-44-4.8zm-132.5 12c-3.4 2.7-3.4 6.8 0 10.9 3.2 3.8 7.4 6 19.9 10.4 12.6 4.5 14.9 6 13.5 8.7-.6 1.1-2.9 3.2-5 4.7-4.6 3.2-5.1 4.4-1.2 3.3 9.6-2.8 17.1-9.2 14.4-12.3-.8-1.1.4-1.3 6.3-1 7.3.4 9.1-.1 19.7-5.6.4-.2.2 1.1-.4 3-2.5 7.5-11.1 13-26.3 16.8-4.9 1.2-9.2 2.5-9.5 2.7-.3.3 3.6.3 8.5 0 18-1 26.5-6.8 34.7-23.7 2.5-5.2 6.4-11.6 8.8-14.3 6.1-6.8 3.2-5.8-5.2 2-18.5 16.9-30.6 20.6-48.8 14.8-10.8-3.5-14.7-5.5-18.8-9.8-4-4.1-3.9-6.3.5-9.3 1.8-1.2 2.9-2.4 2.6-2.8-.4-.3-3-.6-5.8-.6-3.8 0-6 .6-7.9 2.1zm4.1 6.1c-.3.7-.5.2-.5-1.2s.2-1.9.5-1.3c.2.7.2 1.9 0 2.5z"/><path d="M642.4 446.4c1 4.3.8 14.3-.4 20.5-1.5 7.8-1.2 17.3.6 21.7.9 2.2 3.4 6.2 5.6 9.1 4.1 5.4 14.4 14 15.4 13 .4-.3-2.3-3.8-5.8-7.8-7.1-7.8-12.8-17.8-12.9-22.4-.1-1.7.2-5 .7-7.4l.7-4.4 2 5.3c2.4 6.6 9.9 14.4 14.8 15.5 2 .5 2.8 1 1.9 1.3-2.2.7-3 2.3-3 6.4 0 4.3 3.6 14.8 5.1 14.8.6 0 .7-.9.3-2.2-.9-2.9-.9-9.2 0-10.7 1.2-1.9 2.9-1.3 15.8 5.3 7.1 3.6 14.6 6.7 17.2 7.1 11.4 1.7 15.3-6.1 7.5-15-4-4.5-5.3-4.5-4.5 0 1.1 5.5-.6 7.5-6.4 7.5-5.5 0-10.8-2.1-21.3-8.2-8.8-5.2-8.8-5.1-16.2-12.4-7-7-10.5-14.4-13.6-28.8-1.1-5-2.5-9.6-3.1-10.1-.7-.7-.9-.1-.4 1.9zm-1.9 51.6c.3 4.1.2 11.7-.3 16.7-.4 5.1-.4 9.3 0 9.3s1.4-2.1 2.2-4.8c.8-2.6 1.5-3.9 1.5-3 .1 3 2 2 2.6-1.5.7-3.5-2.5-16.9-5-21.4-1.5-2.7-1.5-2.5-1 4.7zM285.4 923.5c-.4.9-.2 2.1.4 2.7 1.5 1.5 4.4.1 4-1.9-.4-2.3-3.6-2.9-4.4-.8zm570.4.1c-1.2 1.1.5 4.5 2.1 4.2 2.4-.5 2.7-4.8.3-4.8-1 0-2.1.3-2.4.6zM797 965.3c-3.3 2-5.6 4.1-5.7 5.3-.3 2.5 16.8 30.8 18.9 31.2 1.2.2 2-1.7 3.7-8.2 3.1-12.4 2.8-14.8-2.7-23.6-3-4.6-5.5-7.6-6.7-7.8-1.1-.1-4.5 1.3-7.5 3.1zm-462.5 9c-3 5.3-3.1 9-.2 17.7 2.5 7.2 4.5 8.5 8.1 5.1 3-2.8 10-17.5 9.3-19.5-.6-1.4-11.5-7.6-13.6-7.6-.6 0-2.2 2-3.6 4.3zm-14.8 27.9c-6.6 11.5-14.8 28-14.4 29.1.2.6 3.4 2.8 7 4.7 6.1 3.3 6.6 3.4 8.4 1.8 1-.9 3.7-5.4 6.1-10l4.2-8.3-2.6-9c-4.1-14.2-4.8-14.9-8.7-8.3zm429.6-10.9c-3.5 1.7-6.3 3.7-6.3 4.5 0 1.8 16.8 37.2 18.5 39.1 2 2.1 15.5-4.3 15.5-7.3-.1-1.2-4.1-10.4-9-20.6-6.4-13.3-9.3-18.6-10.7-18.7-1-.1-4.6 1.2-8 3zm-370.2 15.8c-2.8 6.7-5.1 13.1-5.1 14.3.1 3.5 7.4 20.1 9 20.4 1.2.2 3.6-4.6 9.2-18 10.4-25.1 10.2-22.3 2.3-25.8-3.7-1.7-7.5-3-8.5-3-1.3 0-3.1 3-6.9 12.1zm56.4 12.1c-2.1 7.1-2 7.2 2.7 15.5 4.3 7.6 7 9.2 9.8 5.8 2.2-2.6 5.9-20.3 4.6-21.9-1-1.3-11.5-4.6-14.5-4.6-.5 0-1.7 2.3-2.6 5.2zm53.1 8.4c-.3.9-.9 3.9-1.2 6.7-.6 5-.4 5.5 4.3 11.9 2.6 3.7 5.5 7 6.3 7.3 3.2 1.3 5.7-3.8 7-14 .6-5.4.8-10.1.3-10.5-.7-.7-12.3-3-15-3-.6 0-1.4.7-1.7 1.6zm-5.1 32.6c-1.3 6.1-4.5 28.3-4.5 31.7v3.8l7.6 1.3c5.2.8 7.9.9 8.6.2 1.1-1.1 3.7-15.5 3.8-20.3 0-2.9-11.4-18.9-13.6-18.9-.7 0-1.6 1-1.9 2.2zm116-29.5c-8 1-7.8.8-7.1 7.4.3 3.4.8 6.5 1.2 7 .3.5 3.2 3.2 6.5 5.9 10 8.3 12.6 6.4 10.9-7.8-1.7-13.5-1.6-13.2-5.3-13.1-1.7.1-4.5.4-6.2.6zM113 226l-5.2 6 5.5 14.8c3 8.1 5.4 14.9 5.2 15-.2.2-7.1-1.1-15.4-2.9L88 255.6l-2.6 2.5c-1.4 1.3-4 4.2-5.7 6.3l-3.1 3.9 4.4 3.9c2.5 2.1 5 3.8 5.5 3.8.6 0 2.1-1.3 3.5-3l2.5-3 16.2 3.8 16.2 3.7 10.5 9c9.2 8 10.3 9.2 9 10.6-.8.8-1.4 1.8-1.4 2.1 0 .3 2.2 2.4 4.9 4.6l4.9 4.2 7.6-8.8c4.2-4.8 7.6-9.2 7.6-9.7 0-.6-2.1-2.8-4.6-4.9-4.2-3.5-4.7-3.7-6.3-2.2-1.6 1.5-2.4 1-11.7-7-5.4-4.7-10.2-9.1-10.6-9.8-.4-.6-3.2-7.9-6.3-16l-5.6-14.9 2.5-2.6c1.4-1.5 2.6-3.2 2.6-3.7 0-.9-8.3-8.4-9.3-8.4-.3 0-2.8 2.7-5.7 6zm927.2-1.9l-4.3 4.1 1.8 2.5c1 1.4 2.2 3.1 2.7 3.8.6.8-1.2 6.6-4.9 16.3l-5.8 15.2-10.5 9c-10 8.7-10.5 9-12.3 7.4-1.8-1.6-2.1-1.5-6.3 2.2-2.4 2.1-4.5 4.3-4.5 4.7-.1.5 3.3 4.9 7.5 9.8l7.6 8.9 3.8-3c5.5-4.3 6.6-5.8 5.2-7.2-.7-.7-1.2-1.5-1.2-1.9 0-.4 4.6-4.7 10.2-9.5l10.1-8.9 16.1-3.6 16.1-3.7 2.8 3c3.3 3.5 5 3.2 9.6-1.6 3.7-3.9 3.7-3.9-2.7-11.1l-4.2-4.8-7.8 1.7c-4.2.9-11.4 2.5-15.9 3.5l-8.2 1.9 1.1-2.7c5.7-14.9 9.8-26.7 9.6-27.7-.4-1.9-9.1-12.3-10.3-12.3-.5 0-2.9 1.8-5.3 4zM124 759.6c-14.9 1.4-32.9 3.9-33.6 4.7-.7.7-.7.6 24.8 47.1l21.9 39.8-23.6 46C100.6 922.5 90 943.6 90 944.1s1 .7 2.3.4c4.3-.9 25.3-3.5 37.6-4.5 14.1-1.2 56.4-1.5 62.9-.4l4.2.7v-53.9l.1-53.9 33.9-28.4c18.7-15.6 34-28.7 34-29.2 0-1.6-28.5-9.6-44.5-12.5-24.7-4.4-67.1-5.7-96.5-2.8zm814-.1c-6.3.7-15.8 2-21 2.9-17.5 3.1-44.7 11-44.3 12.9.1.4 15.3 13.4 33.8 28.8L940 832v108.3l5.3-.7c7.7-1.1 48.8-.8 62.4.4 12.7 1.1 34.4 3.8 38.1 4.7 1.2.3 2.2.2 2.2-.2 0-.3-10.6-20.7-23.6-45.2-21.6-40.6-23.5-44.7-22.5-47 .6-1.4 11.3-21.6 23.7-45 12.4-23.4 22.3-42.7 22.1-43-.8-.7-18.6-3.2-35.2-4.8-19.3-1.8-58.1-1.8-74.5 0z"/><path d="M250 804.5c-15.7 13.1-28.5 24.3-28.5 24.9 0 1.8 24.9 22.1 41.5 33.6l15.5 10.9.3-23.5c.1-13 .1-33.9 0-46.6l-.3-23.1-28.5 23.8zm608 23v46.6l2.3-1.2c5.4-2.9 30.4-21.3 43-31.7l13.9-11.5-2.4-2.2c-4.6-4.6-55.2-46.5-56-46.5-.4 0-.8 20.9-.8 46.5z"/></g></svg>